<svg width="373" height="218" viewBox="0 0 373 218" fill="none" xmlns="http://www.w3.org/2000/svg">
<path d="M0.435039 97.01V78.48L56.535 2.99999H85.435L30.525 78.48L17.095 74.57H110.765V97.01H0.435039ZM64.525 122V97.01L65.375 74.57V52.3H91.385V122H64.525ZM170.002 124.04C160.255 124.04 151.529 121.66 143.822 116.9C136.115 112.027 130.052 105 125.632 95.82C121.212 86.64 119.002 75.5333 119.002 62.5C119.002 49.4667 121.212 38.36 125.632 29.18C130.052 20 136.115 13.03 143.822 8.26999C151.529 3.39666 160.255 0.959998 170.002 0.959998C179.862 0.959998 188.589 3.39666 196.182 8.26999C203.889 13.03 209.952 20 214.372 29.18C218.792 38.36 221.002 49.4667 221.002 62.5C221.002 75.5333 218.792 86.64 214.372 95.82C209.952 105 203.889 112.027 196.182 116.9C188.589 121.66 179.862 124.04 170.002 124.04ZM170.002 100.75C174.649 100.75 178.672 99.4467 182.072 96.84C185.585 94.2333 188.305 90.0967 190.232 84.43C192.272 78.7633 193.292 71.4533 193.292 62.5C193.292 53.5467 192.272 46.2367 190.232 40.57C188.305 34.9033 185.585 30.7667 182.072 28.16C178.672 25.5533 174.649 24.25 170.002 24.25C165.469 24.25 161.445 25.5533 157.932 28.16C154.532 30.7667 151.812 34.9033 149.772 40.57C147.845 46.2367 146.882 53.5467 146.882 62.5C146.882 71.4533 147.845 78.7633 149.772 84.43C151.812 90.0967 154.532 94.2333 157.932 96.84C161.445 99.4467 165.469 100.75 170.002 100.75ZM251.553 122L332.813 2.99999H353.043L271.783 122H251.553ZM261.923 67.26C256.143 67.26 251.043 65.9567 246.623 63.35C242.203 60.63 238.69 56.8333 236.083 51.96C233.59 46.9733 232.343 41.1367 232.343 34.45C232.343 27.7633 233.59 21.9833 236.083 17.11C238.69 12.2367 242.203 8.44 246.623 5.72C251.043 3 256.143 1.64 261.923 1.64C267.703 1.64 272.803 3 277.223 5.72C281.643 8.44 285.1 12.2367 287.593 17.11C290.086 21.9833 291.333 27.7633 291.333 34.45C291.333 41.1367 290.086 46.9733 287.593 51.96C285.1 56.8333 281.643 60.63 277.223 63.35C272.803 65.9567 267.703 67.26 261.923 67.26ZM261.923 53.32C265.663 53.32 268.666 51.79 270.933 48.73C273.2 45.5567 274.333 40.7967 274.333 34.45C274.333 28.1033 273.2 23.4 270.933 20.34C268.666 17.1667 265.663 15.58 261.923 15.58C258.296 15.58 255.293 17.1667 252.913 20.34C250.646 23.4 249.513 28.1033 249.513 34.45C249.513 40.6833 250.646 45.3867 252.913 48.56C255.293 51.7333 258.296 53.32 261.923 53.32ZM342.673 123.36C337.006 123.36 331.906 122.057 327.373 119.45C322.953 116.73 319.496 112.933 317.003 108.06C314.51 103.073 313.263 97.2367 313.263 90.55C313.263 83.8633 314.51 78.0833 317.003 73.21C319.496 68.3367 322.953 64.54 327.373 61.82C331.906 59.1 337.006 57.74 342.673 57.74C348.566 57.74 353.723 59.1 358.143 61.82C362.563 64.54 366.02 68.3367 368.513 73.21C371.006 78.0833 372.253 83.8633 372.253 90.55C372.253 97.2367 371.006 103.073 368.513 108.06C366.02 112.933 362.563 116.73 358.143 119.45C353.723 122.057 348.566 123.36 342.673 123.36ZM342.673 109.42C346.413 109.42 349.416 107.89 351.683 104.83C353.95 101.657 355.083 96.8967 355.083 90.55C355.083 84.3167 353.95 79.6133 351.683 76.44C349.416 73.2667 346.413 71.68 342.673 71.68C339.046 71.68 336.043 73.2667 333.663 76.44C331.396 79.5 330.263 84.2033 330.263 90.55C330.263 96.8967 331.396 101.657 333.663 104.83C336.043 107.89 339.046 109.42 342.673 109.42Z" fill="url(#paint0_linear_1082_87)"/>
<path d="M18.7615 212V195.2H26.0335C27.5375 195.2 28.8335 195.448 29.9215 195.944C31.0095 196.424 31.8495 197.12 32.4415 198.032C33.0335 198.944 33.3295 200.032 33.3295 201.296C33.3295 202.544 33.0335 203.624 32.4415 204.536C31.8495 205.432 31.0095 206.12 29.9215 206.6C28.8335 207.08 27.5375 207.32 26.0335 207.32H20.9215L22.6495 205.616V212H18.7615ZM29.4415 212L25.2415 205.904H29.3935L33.6415 212H29.4415ZM22.6495 206.048L20.9215 204.224H25.8175C27.0175 204.224 27.9135 203.968 28.5055 203.456C29.0975 202.928 29.3935 202.208 29.3935 201.296C29.3935 200.368 29.0975 199.648 28.5055 199.136C27.9135 198.624 27.0175 198.368 25.8175 198.368H20.9215L22.6495 196.52V206.048ZM42.554 212.192C41.082 212.192 39.786 211.904 38.666 211.328C37.562 210.752 36.706 209.968 36.098 208.976C35.49 207.968 35.186 206.824 35.186 205.544C35.186 204.248 35.482 203.104 36.074 202.112C36.682 201.104 37.506 200.32 38.546 199.76C39.586 199.184 40.762 198.896 42.074 198.896C43.338 198.896 44.474 199.168 45.482 199.712C46.506 200.24 47.314 201.008 47.906 202.016C48.498 203.008 48.794 204.2 48.794 205.592C48.794 205.736 48.786 205.904 48.77 206.096C48.754 206.272 48.738 206.44 48.722 206.6H38.234V204.416H46.754L45.314 205.064C45.314 204.392 45.178 203.808 44.906 203.312C44.634 202.816 44.258 202.432 43.778 202.16C43.298 201.872 42.738 201.728 42.098 201.728C41.458 201.728 40.89 201.872 40.394 202.16C39.914 202.432 39.538 202.824 39.266 203.336C38.994 203.832 38.858 204.424 38.858 205.112V205.688C38.858 206.392 39.01 207.016 39.314 207.56C39.634 208.088 40.074 208.496 40.634 208.784C41.21 209.056 41.882 209.192 42.65 209.192C43.338 209.192 43.938 209.088 44.45 208.88C44.978 208.672 45.458 208.36 45.89 207.944L47.882 210.104C47.29 210.776 46.546 211.296 45.65 211.664C44.754 212.016 43.722 212.192 42.554 212.192ZM56.8306 212.192C55.6146 212.192 54.5186 211.92 53.5426 211.376C52.5666 210.816 51.7906 210.04 51.2146 209.048C50.6546 208.056 50.3746 206.888 50.3746 205.544C50.3746 204.184 50.6546 203.008 51.2146 202.016C51.7906 201.024 52.5666 200.256 53.5426 199.712C54.5186 199.168 55.6146 198.896 56.8306 198.896C57.9186 198.896 58.8706 199.136 59.6866 199.616C60.5026 200.096 61.1346 200.824 61.5826 201.8C62.0306 202.776 62.2546 204.024 62.2546 205.544C62.2546 207.048 62.0386 208.296 61.6066 209.288C61.1746 210.264 60.5506 210.992 59.7346 211.472C58.9346 211.952 57.9666 212.192 56.8306 212.192ZM57.4786 209.12C58.0866 209.12 58.6386 208.976 59.1346 208.688C59.6306 208.4 60.0226 207.992 60.3106 207.464C60.6146 206.92 60.7666 206.28 60.7666 205.544C60.7666 204.792 60.6146 204.152 60.3106 203.624C60.0226 203.096 59.6306 202.688 59.1346 202.4C58.6386 202.112 58.0866 201.968 57.4786 201.968C56.8546 201.968 56.2946 202.112 55.7986 202.4C55.3026 202.688 54.9026 203.096 54.5986 203.624C54.3106 204.152 54.1666 204.792 54.1666 205.544C54.1666 206.28 54.3106 206.92 54.5986 207.464C54.9026 207.992 55.3026 208.4 55.7986 208.688C56.2946 208.976 56.8546 209.12 57.4786 209.12ZM60.8626 212V209.36L60.9346 205.52L60.6946 201.704V194.192H64.4386V212H60.8626ZM73.3518 212.192C72.2798 212.192 71.3198 211.984 70.4718 211.568C69.6398 211.152 68.9918 210.52 68.5278 209.672C68.0638 208.808 67.8318 207.712 67.8318 206.384V199.088H71.5758V205.832C71.5758 206.904 71.7998 207.696 72.2478 208.208C72.7118 208.704 73.3598 208.952 74.1918 208.952C74.7678 208.952 75.2798 208.832 75.7278 208.592C76.1758 208.336 76.5278 207.952 76.7838 207.44C77.0398 206.912 77.1678 206.256 77.1678 205.472V199.088H80.9118V212H77.3598V208.448L78.0078 209.48C77.5758 210.376 76.9358 211.056 76.0878 211.52C75.2558 211.968 74.3438 212.192 73.3518 212.192ZM90.6203 212.192C89.2283 212.192 87.9883 211.912 86.9003 211.352C85.8123 210.776 84.9563 209.984 84.3323 208.976C83.7243 207.968 83.4203 206.824 83.4203 205.544C83.4203 204.248 83.7243 203.104 84.3323 202.112C84.9563 201.104 85.8123 200.32 86.9003 199.76C87.9883 199.184 89.2283 198.896 90.6203 198.896C91.9803 198.896 93.1643 199.184 94.1723 199.76C95.1803 200.32 95.9243 201.128 96.4043 202.184L93.5003 203.744C93.1643 203.136 92.7403 202.688 92.2283 202.4C91.7323 202.112 91.1883 201.968 90.5963 201.968C89.9563 201.968 89.3803 202.112 88.8683 202.4C88.3563 202.688 87.9483 203.096 87.6443 203.624C87.3563 204.152 87.2123 204.792 87.2123 205.544C87.2123 206.296 87.3563 206.936 87.6443 207.464C87.9483 207.992 88.3563 208.4 88.8683 208.688C89.3803 208.976 89.9563 209.12 90.5963 209.12C91.1883 209.12 91.7323 208.984 92.2283 208.712C92.7403 208.424 93.1643 207.968 93.5003 207.344L96.4043 208.928C95.9243 209.968 95.1803 210.776 94.1723 211.352C93.1643 211.912 91.9803 212.192 90.6203 212.192ZM89.2523 217.568C88.8363 217.568 88.4283 217.52 88.0283 217.424C87.6443 217.328 87.3083 217.208 87.0203 217.064L87.5963 215.456C87.8363 215.568 88.0843 215.656 88.3403 215.72C88.5963 215.784 88.8683 215.816 89.1563 215.816C89.6043 215.816 89.9243 215.744 90.1163 215.6C90.3083 215.456 90.4043 215.272 90.4043 215.048C90.4043 214.84 90.3083 214.672 90.1163 214.544C89.9403 214.416 89.6443 214.352 89.2283 214.352H88.4123L89.0363 211.808H91.0283L90.6923 213.2C91.4123 213.28 91.9403 213.504 92.2763 213.872C92.6123 214.256 92.7803 214.696 92.7803 215.192C92.7803 215.912 92.4603 216.488 91.8203 216.92C91.1803 217.352 90.3243 217.568 89.2523 217.568ZM106.48 212V209.48L106.24 208.928V204.416C106.24 203.616 105.992 202.992 105.496 202.544C105.016 202.096 104.272 201.872 103.264 201.872C102.576 201.872 101.896 201.984 101.224 202.208C100.568 202.416 100.008 202.704 99.544 203.072L98.2 200.456C98.904 199.96 99.752 199.576 100.744 199.304C101.736 199.032 102.744 198.896 103.768 198.896C105.736 198.896 107.264 199.36 108.352 200.288C109.44 201.216 109.984 202.664 109.984 204.632V212H106.48ZM102.544 212.192C101.536 212.192 100.672 212.024 99.952 211.688C99.232 211.336 98.68 210.864 98.296 210.272C97.912 209.68 97.72 209.016 97.72 208.28C97.72 207.512 97.904 206.84 98.272 206.264C98.656 205.688 99.256 205.24 100.072 204.92C100.888 204.584 101.952 204.416 103.264 204.416H106.696V206.6H103.672C102.792 206.6 102.184 206.744 101.848 207.032C101.528 207.32 101.368 207.68 101.368 208.112C101.368 208.592 101.552 208.976 101.92 209.264C102.304 209.536 102.824 209.672 103.48 209.672C104.104 209.672 104.664 209.528 105.16 209.24C105.656 208.936 106.016 208.496 106.24 207.92L106.816 209.648C106.544 210.48 106.048 211.112 105.328 211.544C104.608 211.976 103.68 212.192 102.544 212.192ZM105.952 197.504C105.536 197.504 105.168 197.432 104.848 197.288C104.528 197.128 104.24 196.952 103.984 196.76C103.728 196.552 103.488 196.376 103.264 196.232C103.04 196.072 102.816 195.992 102.592 195.992C102.272 195.992 102.008 196.112 101.8 196.352C101.592 196.576 101.472 196.904 101.44 197.336H99.544C99.576 196.264 99.84 195.416 100.336 194.792C100.832 194.152 101.504 193.832 102.352 193.832C102.768 193.832 103.136 193.912 103.456 194.072C103.776 194.216 104.064 194.392 104.32 194.6C104.592 194.808 104.84 194.992 105.064 195.152C105.288 195.296 105.504 195.368 105.712 195.368C106.048 195.368 106.32 195.256 106.528 195.032C106.736 194.792 106.848 194.472 106.864 194.072H108.76C108.744 195.096 108.48 195.928 107.968 196.568C107.472 197.192 106.8 197.504 105.952 197.504ZM119.61 212.192C118.234 212.192 117.01 211.904 115.938 211.328C114.882 210.752 114.042 209.968 113.418 208.976C112.81 207.968 112.506 206.824 112.506 205.544C112.506 204.248 112.81 203.104 113.418 202.112C114.042 201.104 114.882 200.32 115.938 199.76C117.01 199.184 118.234 198.896 119.61 198.896C120.97 198.896 122.186 199.184 123.258 199.76C124.33 200.32 125.17 201.096 125.778 202.088C126.386 203.08 126.69 204.232 126.69 205.544C126.69 206.824 126.386 207.968 125.778 208.976C125.17 209.968 124.33 210.752 123.258 211.328C122.186 211.904 120.97 212.192 119.61 212.192ZM119.61 209.12C120.234 209.12 120.794 208.976 121.29 208.688C121.786 208.4 122.178 207.992 122.466 207.464C122.754 206.92 122.898 206.28 122.898 205.544C122.898 204.792 122.754 204.152 122.466 203.624C122.178 203.096 121.786 202.688 121.29 202.4C120.794 202.112 120.234 201.968 119.61 201.968C118.986 201.968 118.426 202.112 117.93 202.4C117.434 202.688 117.034 203.096 116.73 203.624C116.442 204.152 116.298 204.792 116.298 205.544C116.298 206.28 116.442 206.92 116.73 207.464C117.034 207.992 117.434 208.4 117.93 208.688C118.426 208.976 118.986 209.12 119.61 209.12ZM141.534 212.192C140.318 212.192 139.222 211.92 138.246 211.376C137.27 210.816 136.494 210.04 135.918 209.048C135.358 208.056 135.078 206.888 135.078 205.544C135.078 204.184 135.358 203.008 135.918 202.016C136.494 201.024 137.27 200.256 138.246 199.712C139.222 199.168 140.318 198.896 141.534 198.896C142.622 198.896 143.574 199.136 144.39 199.616C145.206 200.096 145.838 200.824 146.286 201.8C146.734 202.776 146.958 204.024 146.958 205.544C146.958 207.048 146.742 208.296 146.31 209.288C145.878 210.264 145.254 210.992 144.438 211.472C143.638 211.952 142.67 212.192 141.534 212.192ZM142.182 209.12C142.79 209.12 143.342 208.976 143.838 208.688C144.334 208.4 144.726 207.992 145.014 207.464C145.318 206.92 145.47 206.28 145.47 205.544C145.47 204.792 145.318 204.152 145.014 203.624C144.726 203.096 144.334 202.688 143.838 202.4C143.342 202.112 142.79 201.968 142.182 201.968C141.558 201.968 140.998 202.112 140.502 202.4C140.006 202.688 139.606 203.096 139.302 203.624C139.014 204.152 138.87 204.792 138.87 205.544C138.87 206.28 139.014 206.92 139.302 207.464C139.606 207.992 140.006 208.4 140.502 208.688C140.998 208.976 141.558 209.12 142.182 209.12ZM145.566 212V209.36L145.638 205.52L145.398 201.704V194.192H149.142V212H145.566ZM159.015 212.192C157.543 212.192 156.247 211.904 155.127 211.328C154.023 210.752 153.167 209.968 152.559 208.976C151.951 207.968 151.647 206.824 151.647 205.544C151.647 204.248 151.943 203.104 152.535 202.112C153.143 201.104 153.967 200.32 155.007 199.76C156.047 199.184 157.223 198.896 158.535 198.896C159.799 198.896 160.935 199.168 161.943 199.712C162.967 200.24 163.775 201.008 164.367 202.016C164.959 203.008 165.255 204.2 165.255 205.592C165.255 205.736 165.247 205.904 165.231 206.096C165.215 206.272 165.199 206.44 165.183 206.6H154.695V204.416H163.215L161.775 205.064C161.775 204.392 161.639 203.808 161.367 203.312C161.095 202.816 160.719 202.432 160.239 202.16C159.759 201.872 159.199 201.728 158.559 201.728C157.919 201.728 157.351 201.872 156.855 202.16C156.375 202.432 155.999 202.824 155.727 203.336C155.455 203.832 155.319 204.424 155.319 205.112V205.688C155.319 206.392 155.471 207.016 155.775 207.56C156.095 208.088 156.535 208.496 157.095 208.784C157.671 209.056 158.343 209.192 159.111 209.192C159.799 209.192 160.399 209.088 160.911 208.88C161.439 208.672 161.919 208.36 162.351 207.944L164.343 210.104C163.751 210.776 163.007 211.296 162.111 211.664C161.215 212.016 160.183 212.192 159.015 212.192ZM174.808 212V195.2H182.44C184.264 195.2 185.872 195.552 187.264 196.256C188.656 196.944 189.744 197.912 190.528 199.16C191.312 200.408 191.704 201.888 191.704 203.6C191.704 205.296 191.312 206.776 190.528 208.04C189.744 209.288 188.656 210.264 187.264 210.968C185.872 211.656 184.264 212 182.44 212H174.808ZM178.696 208.808H182.248C183.368 208.808 184.336 208.6 185.152 208.184C185.984 207.752 186.624 207.144 187.072 206.36C187.536 205.576 187.768 204.656 187.768 203.6C187.768 202.528 187.536 201.608 187.072 200.84C186.624 200.056 185.984 199.456 185.152 199.04C184.336 198.608 183.368 198.392 182.248 198.392H178.696V208.808ZM200.781 212.192C199.309 212.192 198.013 211.904 196.893 211.328C195.789 210.752 194.933 209.968 194.325 208.976C193.717 207.968 193.413 206.824 193.413 205.544C193.413 204.248 193.709 203.104 194.301 202.112C194.909 201.104 195.733 200.32 196.773 199.76C197.813 199.184 198.989 198.896 200.301 198.896C201.565 198.896 202.701 199.168 203.709 199.712C204.733 200.24 205.541 201.008 206.133 202.016C206.725 203.008 207.021 204.2 207.021 205.592C207.021 205.736 207.013 205.904 206.997 206.096C206.981 206.272 206.965 206.44 206.949 206.6H196.461V204.416H204.981L203.541 205.064C203.541 204.392 203.405 203.808 203.133 203.312C202.861 202.816 202.485 202.432 202.005 202.16C201.525 201.872 200.965 201.728 200.325 201.728C199.685 201.728 199.117 201.872 198.621 202.16C198.141 202.432 197.765 202.824 197.493 203.336C197.221 203.832 197.085 204.424 197.085 205.112V205.688C197.085 206.392 197.237 207.016 197.541 207.56C197.861 208.088 198.301 208.496 198.861 208.784C199.437 209.056 200.109 209.192 200.877 209.192C201.565 209.192 202.165 209.088 202.677 208.88C203.205 208.672 203.685 208.36 204.117 207.944L206.109 210.104C205.517 210.776 204.773 211.296 203.877 211.664C202.981 212.016 201.949 212.192 200.781 212.192ZM213.857 212.192C212.753 212.192 211.689 212.064 210.665 211.808C209.657 211.536 208.857 211.2 208.265 210.8L209.513 208.112C210.105 208.48 210.801 208.784 211.601 209.024C212.417 209.248 213.217 209.36 214.001 209.36C214.865 209.36 215.473 209.256 215.825 209.048C216.193 208.84 216.377 208.552 216.377 208.184C216.377 207.88 216.233 207.656 215.945 207.512C215.673 207.352 215.305 207.232 214.841 207.152C214.377 207.072 213.865 206.992 213.305 206.912C212.761 206.832 212.209 206.728 211.649 206.6C211.089 206.456 210.577 206.248 210.113 205.976C209.649 205.704 209.273 205.336 208.985 204.872C208.713 204.408 208.577 203.808 208.577 203.072C208.577 202.256 208.809 201.536 209.273 200.912C209.753 200.288 210.441 199.8 211.337 199.448C212.233 199.08 213.305 198.896 214.553 198.896C215.433 198.896 216.329 198.992 217.241 199.184C218.153 199.376 218.913 199.656 219.521 200.024L218.273 202.688C217.649 202.32 217.017 202.072 216.377 201.944C215.753 201.8 215.145 201.728 214.553 201.728C213.721 201.728 213.113 201.84 212.729 202.064C212.345 202.288 212.153 202.576 212.153 202.928C212.153 203.248 212.289 203.488 212.561 203.648C212.849 203.808 213.225 203.936 213.689 204.032C214.153 204.128 214.657 204.216 215.201 204.296C215.761 204.36 216.321 204.464 216.881 204.608C217.441 204.752 217.945 204.96 218.393 205.232C218.857 205.488 219.233 205.848 219.521 206.312C219.809 206.76 219.953 207.352 219.953 208.088C219.953 208.888 219.713 209.6 219.233 210.224C218.753 210.832 218.057 211.312 217.145 211.664C216.249 212.016 215.153 212.192 213.857 212.192ZM222.263 212V194.192H226.007V212H222.263ZM235.626 212.192C234.25 212.192 233.026 211.904 231.954 211.328C230.898 210.752 230.058 209.968 229.434 208.976C228.826 207.968 228.522 206.824 228.522 205.544C228.522 204.248 228.826 203.104 229.434 202.112C230.058 201.104 230.898 200.32 231.954 199.76C233.026 199.184 234.25 198.896 235.626 198.896C236.986 198.896 238.202 199.184 239.274 199.76C240.346 200.32 241.186 201.096 241.794 202.088C242.402 203.08 242.706 204.232 242.706 205.544C242.706 206.824 242.402 207.968 241.794 208.976C241.186 209.968 240.346 210.752 239.274 211.328C238.202 211.904 236.986 212.192 235.626 212.192ZM235.626 209.12C236.25 209.12 236.81 208.976 237.306 208.688C237.802 208.4 238.194 207.992 238.482 207.464C238.77 206.92 238.914 206.28 238.914 205.544C238.914 204.792 238.77 204.152 238.482 203.624C238.194 203.096 237.802 202.688 237.306 202.4C236.81 202.112 236.25 201.968 235.626 201.968C235.002 201.968 234.442 202.112 233.946 202.4C233.45 202.688 233.05 203.096 232.746 203.624C232.458 204.152 232.314 204.792 232.314 205.544C232.314 206.28 232.458 206.92 232.746 207.464C233.05 207.992 233.45 208.4 233.946 208.688C234.442 208.976 235.002 209.12 235.626 209.12ZM251.448 212.192C250.056 212.192 248.816 211.912 247.728 211.352C246.64 210.776 245.784 209.984 245.16 208.976C244.552 207.968 244.248 206.824 244.248 205.544C244.248 204.248 244.552 203.104 245.16 202.112C245.784 201.104 246.64 200.32 247.728 199.76C248.816 199.184 250.056 198.896 251.448 198.896C252.808 198.896 253.992 199.184 255 199.76C256.008 200.32 256.752 201.128 257.232 202.184L254.328 203.744C253.992 203.136 253.568 202.688 253.056 202.4C252.56 202.112 252.016 201.968 251.424 201.968C250.784 201.968 250.208 202.112 249.696 202.4C249.184 202.688 248.776 203.096 248.472 203.624C248.184 204.152 248.04 204.792 248.04 205.544C248.04 206.296 248.184 206.936 248.472 207.464C248.776 207.992 249.184 208.4 249.696 208.688C250.208 208.976 250.784 209.12 251.424 209.12C252.016 209.12 252.56 208.984 253.056 208.712C253.568 208.424 253.992 207.968 254.328 207.344L257.232 208.928C256.752 209.968 256.008 210.776 255 211.352C253.992 211.912 252.808 212.192 251.448 212.192ZM267.308 212V209.48L267.068 208.928V204.416C267.068 203.616 266.82 202.992 266.324 202.544C265.844 202.096 265.1 201.872 264.092 201.872C263.404 201.872 262.724 201.984 262.052 202.208C261.396 202.416 260.836 202.704 260.372 203.072L259.028 200.456C259.732 199.96 260.58 199.576 261.572 199.304C262.564 199.032 263.572 198.896 264.596 198.896C266.564 198.896 268.092 199.36 269.18 200.288C270.268 201.216 270.812 202.664 270.812 204.632V212H267.308ZM263.372 212.192C262.364 212.192 261.5 212.024 260.78 211.688C260.06 211.336 259.508 210.864 259.124 210.272C258.74 209.68 258.548 209.016 258.548 208.28C258.548 207.512 258.732 206.84 259.1 206.264C259.484 205.688 260.084 205.24 260.9 204.92C261.716 204.584 262.78 204.416 264.092 204.416H267.524V206.6H264.5C263.62 206.6 263.012 206.744 262.676 207.032C262.356 207.32 262.196 207.68 262.196 208.112C262.196 208.592 262.38 208.976 262.748 209.264C263.132 209.536 263.652 209.672 264.308 209.672C264.932 209.672 265.492 209.528 265.988 209.24C266.484 208.936 266.844 208.496 267.068 207.92L267.644 209.648C267.372 210.48 266.876 211.112 266.156 211.544C265.436 211.976 264.508 212.192 263.372 212.192ZM290.737 198.896C291.761 198.896 292.665 199.104 293.449 199.52C294.249 199.92 294.873 200.544 295.321 201.392C295.785 202.224 296.017 203.296 296.017 204.608V212H292.273V205.184C292.273 204.144 292.057 203.376 291.625 202.88C291.193 202.384 290.585 202.136 289.801 202.136C289.257 202.136 288.769 202.264 288.337 202.52C287.905 202.76 287.569 203.128 287.329 203.624C287.089 204.12 286.969 204.752 286.969 205.52V212H283.225V205.184C283.225 204.144 283.009 203.376 282.577 202.88C282.161 202.384 281.561 202.136 280.777 202.136C280.233 202.136 279.745 202.264 279.313 202.52C278.881 202.76 278.545 203.128 278.305 203.624C278.065 204.12 277.945 204.752 277.945 205.52V212H274.201V199.088H277.777V202.616L277.105 201.584C277.553 200.704 278.185 200.04 279.001 199.592C279.833 199.128 280.777 198.896 281.833 198.896C283.017 198.896 284.049 199.2 284.929 199.808C285.825 200.4 286.417 201.312 286.705 202.544L285.385 202.184C285.817 201.176 286.505 200.376 287.449 199.784C288.409 199.192 289.505 198.896 290.737 198.896ZM305.874 212.192C304.402 212.192 303.106 211.904 301.986 211.328C300.882 210.752 300.026 209.968 299.418 208.976C298.81 207.968 298.506 206.824 298.506 205.544C298.506 204.248 298.802 203.104 299.394 202.112C300.002 201.104 300.826 200.32 301.866 199.76C302.906 199.184 304.082 198.896 305.394 198.896C306.658 198.896 307.794 199.168 308.802 199.712C309.826 200.24 310.634 201.008 311.226 202.016C311.818 203.008 312.114 204.2 312.114 205.592C312.114 205.736 312.106 205.904 312.09 206.096C312.074 206.272 312.058 206.44 312.042 206.6H301.554V204.416H310.074L308.634 205.064C308.634 204.392 308.498 203.808 308.226 203.312C307.954 202.816 307.578 202.432 307.098 202.16C306.618 201.872 306.058 201.728 305.418 201.728C304.778 201.728 304.21 201.872 303.714 202.16C303.234 202.432 302.858 202.824 302.586 203.336C302.314 203.832 302.178 204.424 302.178 205.112V205.688C302.178 206.392 302.33 207.016 302.634 207.56C302.954 208.088 303.394 208.496 303.954 208.784C304.53 209.056 305.202 209.192 305.97 209.192C306.658 209.192 307.258 209.088 307.77 208.88C308.298 208.672 308.778 208.36 309.21 207.944L311.202 210.104C310.61 210.776 309.866 211.296 308.97 211.664C308.074 212.016 307.042 212.192 305.874 212.192ZM322.455 198.896C323.479 198.896 324.391 199.104 325.191 199.52C326.007 199.92 326.647 200.544 327.111 201.392C327.575 202.224 327.807 203.296 327.807 204.608V212H324.063V205.184C324.063 204.144 323.831 203.376 323.367 202.88C322.919 202.384 322.279 202.136 321.447 202.136C320.855 202.136 320.319 202.264 319.839 202.52C319.375 202.76 319.007 203.136 318.735 203.648C318.479 204.16 318.351 204.816 318.351 205.616V212H314.607V199.088H318.183V202.664L317.511 201.584C317.975 200.72 318.639 200.056 319.503 199.592C320.367 199.128 321.351 198.896 322.455 198.896ZM336.481 212.192C334.961 212.192 333.777 211.808 332.929 211.04C332.081 210.256 331.657 209.096 331.657 207.56V196.232H335.401V207.512C335.401 208.056 335.545 208.48 335.833 208.784C336.121 209.072 336.513 209.216 337.009 209.216C337.601 209.216 338.105 209.056 338.521 208.736L339.529 211.376C339.145 211.648 338.681 211.856 338.137 212C337.609 212.128 337.057 212.192 336.481 212.192ZM329.665 202.256V199.376H338.617V202.256H329.665ZM347.376 212.192C346 212.192 344.776 211.904 343.704 211.328C342.648 210.752 341.808 209.968 341.184 208.976C340.576 207.968 340.272 206.824 340.272 205.544C340.272 204.248 340.576 203.104 341.184 202.112C341.808 201.104 342.648 200.32 343.704 199.76C344.776 199.184 346 198.896 347.376 198.896C348.736 198.896 349.952 199.184 351.024 199.76C352.096 200.32 352.936 201.096 353.544 202.088C354.152 203.08 354.456 204.232 354.456 205.544C354.456 206.824 354.152 207.968 353.544 208.976C352.936 209.968 352.096 210.752 351.024 211.328C349.952 211.904 348.736 212.192 347.376 212.192ZM347.376 209.12C348 209.12 348.56 208.976 349.056 208.688C349.552 208.4 349.944 207.992 350.232 207.464C350.52 206.92 350.664 206.28 350.664 205.544C350.664 204.792 350.52 204.152 350.232 203.624C349.944 203.096 349.552 202.688 349.056 202.4C348.56 202.112 348 201.968 347.376 201.968C346.752 201.968 346.192 202.112 345.696 202.4C345.2 202.688 344.8 203.096 344.496 203.624C344.208 204.152 344.064 204.792 344.064 205.544C344.064 206.28 344.208 206.92 344.496 207.464C344.8 207.992 345.2 208.4 345.696 208.688C346.192 208.976 346.752 209.12 347.376 209.12Z" fill="white"/>
<defs>
<linearGradient id="paint0_linear_1082_87" x1="186" y1="16" x2="186" y2="249" gradientUnits="userSpaceOnUse">
<stop stop-color="#00B3DB"/>
<stop offset="0.21" stop-color="#8F599C"/>
<stop offset="0.405" stop-color="#CF317F"/>
</linearGradient>
</defs>
</svg>
