<svg width="365" height="213" viewBox="0 0 365 213" fill="none" xmlns="http://www.w3.org/2000/svg">
<path d="M45.0975 0.959998C56.0908 0.959998 65.5541 3.22666 73.4875 7.75999C81.4208 12.2933 87.5408 18.9233 91.8475 27.65C96.1541 36.2633 98.3075 47.03 98.3075 59.95C98.3075 73.6633 95.7008 85.28 90.4875 94.8C85.3875 104.32 78.3041 111.573 69.2375 116.56C60.1708 121.547 49.6308 124.04 37.6175 124.04C31.3841 124.04 25.3775 123.36 19.5975 122C13.8175 120.64 8.8308 118.6 4.63746 115.88L14.8375 95.65C18.1241 97.9167 21.6375 99.5033 25.3775 100.41C29.1175 101.203 33.0275 101.6 37.1075 101.6C47.3075 101.6 55.4108 98.4833 61.4175 92.25C67.5375 86.0167 70.5975 76.78 70.5975 64.54C70.5975 62.5 70.5408 60.2333 70.4275 57.74C70.3141 55.2467 70.0308 52.7533 69.5775 50.26L77.0575 57.4C75.1308 61.82 72.4108 65.56 68.8975 68.62C65.3841 71.5667 61.3041 73.8333 56.6575 75.42C52.0108 76.8933 46.7975 77.63 41.0175 77.63C33.4241 77.63 26.5108 76.1 20.2775 73.04C14.1575 69.98 9.22746 65.6733 5.48746 60.12C1.86079 54.5667 0.0474612 48.05 0.0474612 40.57C0.0474612 32.41 2.03079 25.3833 5.99746 19.49C10.0775 13.5967 15.5175 9.06333 22.3175 5.89C29.2308 2.60333 36.8241 0.959998 45.0975 0.959998ZM46.7975 21.53C42.8308 21.53 39.3741 22.2667 36.4275 23.74C33.4808 25.1 31.1575 27.14 29.4575 29.86C27.7575 32.4667 26.9075 35.5833 26.9075 39.21C26.9075 44.65 28.7208 49.0133 32.3475 52.3C36.0875 55.4733 41.0175 57.06 47.1375 57.06C51.1041 57.06 54.6175 56.3233 57.6775 54.85C60.8508 53.2633 63.2875 51.11 64.9875 48.39C66.6875 45.67 67.5375 42.61 67.5375 39.21C67.5375 35.81 66.6875 32.8067 64.9875 30.2C63.4008 27.48 61.0775 25.3833 58.0175 23.91C54.9575 22.3233 51.2175 21.53 46.7975 21.53ZM162.52 124.04C152.773 124.04 144.046 121.66 136.34 116.9C128.633 112.027 122.57 105 118.15 95.82C113.73 86.64 111.52 75.5333 111.52 62.5C111.52 49.4667 113.73 38.36 118.15 29.18C122.57 20 128.633 13.03 136.34 8.26999C144.046 3.39666 152.773 0.959998 162.52 0.959998C172.38 0.959998 181.106 3.39666 188.7 8.26999C196.406 13.03 202.47 20 206.89 29.18C211.31 38.36 213.52 49.4667 213.52 62.5C213.52 75.5333 211.31 86.64 206.89 95.82C202.47 105 196.406 112.027 188.7 116.9C181.106 121.66 172.38 124.04 162.52 124.04ZM162.52 100.75C167.166 100.75 171.19 99.4467 174.59 96.84C178.103 94.2333 180.823 90.0967 182.75 84.43C184.79 78.7633 185.81 71.4533 185.81 62.5C185.81 53.5467 184.79 46.2367 182.75 40.57C180.823 34.9033 178.103 30.7667 174.59 28.16C171.19 25.5533 167.166 24.25 162.52 24.25C157.986 24.25 153.963 25.5533 150.45 28.16C147.05 30.7667 144.33 34.9033 142.29 40.57C140.363 46.2367 139.4 53.5467 139.4 62.5C139.4 71.4533 140.363 78.7633 142.29 84.43C144.33 90.0967 147.05 94.2333 150.45 96.84C153.963 99.4467 157.986 100.75 162.52 100.75ZM244.071 122L325.331 2.99999H345.561L264.301 122H244.071ZM254.441 67.26C248.661 67.26 243.561 65.9567 239.141 63.35C234.721 60.63 231.207 56.8333 228.601 51.96C226.107 46.9733 224.861 41.1367 224.861 34.45C224.861 27.7633 226.107 21.9833 228.601 17.11C231.207 12.2367 234.721 8.44 239.141 5.72C243.561 3 248.661 1.64 254.441 1.64C260.221 1.64 265.321 3 269.741 5.72C274.161 8.44 277.617 12.2367 280.111 17.11C282.604 21.9833 283.851 27.7633 283.851 34.45C283.851 41.1367 282.604 46.9733 280.111 51.96C277.617 56.8333 274.161 60.63 269.741 63.35C265.321 65.9567 260.221 67.26 254.441 67.26ZM254.441 53.32C258.181 53.32 261.184 51.79 263.451 48.73C265.717 45.5567 266.851 40.7967 266.851 34.45C266.851 28.1033 265.717 23.4 263.451 20.34C261.184 17.1667 258.181 15.58 254.441 15.58C250.814 15.58 247.811 17.1667 245.431 20.34C243.164 23.4 242.031 28.1033 242.031 34.45C242.031 40.6833 243.164 45.3867 245.431 48.56C247.811 51.7333 250.814 53.32 254.441 53.32ZM335.191 123.36C329.524 123.36 324.424 122.057 319.891 119.45C315.471 116.73 312.014 112.933 309.521 108.06C307.027 103.073 305.781 97.2367 305.781 90.55C305.781 83.8633 307.027 78.0833 309.521 73.21C312.014 68.3367 315.471 64.54 319.891 61.82C324.424 59.1 329.524 57.74 335.191 57.74C341.084 57.74 346.241 59.1 350.661 61.82C355.081 64.54 358.537 68.3367 361.031 73.21C363.524 78.0833 364.771 83.8633 364.771 90.55C364.771 97.2367 363.524 103.073 361.031 108.06C358.537 112.933 355.081 116.73 350.661 119.45C346.241 122.057 341.084 123.36 335.191 123.36ZM335.191 109.42C338.931 109.42 341.934 107.89 344.201 104.83C346.467 101.657 347.601 96.8967 347.601 90.55C347.601 84.3167 346.467 79.6133 344.201 76.44C341.934 73.2667 338.931 71.68 335.191 71.68C331.564 71.68 328.561 73.2667 326.181 76.44C323.914 79.5 322.781 84.2033 322.781 90.55C322.781 96.8967 323.914 101.657 326.181 104.83C328.561 107.89 331.564 109.42 335.191 109.42Z" fill="url(#paint0_linear_1083_92)"/>
<path d="M40.8348 212L48.3228 195.2H52.1628L59.6748 212H55.5948L49.4508 197.168H50.9868L44.8188 212H40.8348ZM44.5788 208.4L45.6108 205.448H54.2508L55.3068 208.4H44.5788ZM66.3674 212.192C65.2954 212.192 64.3354 211.984 63.4874 211.568C62.6554 211.152 62.0074 210.52 61.5434 209.672C61.0794 208.808 60.8474 207.712 60.8474 206.384V199.088H64.5914V205.832C64.5914 206.904 64.8154 207.696 65.2634 208.208C65.7274 208.704 66.3754 208.952 67.2074 208.952C67.7834 208.952 68.2954 208.832 68.7434 208.592C69.1914 208.336 69.5434 207.952 69.7994 207.44C70.0554 206.912 70.1834 206.256 70.1834 205.472V199.088H73.9274V212H70.3754V208.448L71.0234 209.48C70.5914 210.376 69.9514 211.056 69.1034 211.52C68.2714 211.968 67.3594 212.192 66.3674 212.192ZM93.932 198.896C94.956 198.896 95.86 199.104 96.644 199.52C97.444 199.92 98.068 200.544 98.516 201.392C98.98 202.224 99.212 203.296 99.212 204.608V212H95.468V205.184C95.468 204.144 95.252 203.376 94.82 202.88C94.388 202.384 93.78 202.136 92.996 202.136C92.452 202.136 91.964 202.264 91.532 202.52C91.1 202.76 90.764 203.128 90.524 203.624C90.284 204.12 90.164 204.752 90.164 205.52V212H86.42V205.184C86.42 204.144 86.204 203.376 85.772 202.88C85.356 202.384 84.756 202.136 83.972 202.136C83.428 202.136 82.94 202.264 82.508 202.52C82.076 202.76 81.74 203.128 81.5 203.624C81.26 204.12 81.14 204.752 81.14 205.52V212H77.396V199.088H80.972V202.616L80.3 201.584C80.748 200.704 81.38 200.04 82.196 199.592C83.028 199.128 83.972 198.896 85.028 198.896C86.212 198.896 87.244 199.2 88.124 199.808C89.02 200.4 89.612 201.312 89.9 202.544L88.58 202.184C89.012 201.176 89.7 200.376 90.644 199.784C91.604 199.192 92.7 198.896 93.932 198.896ZM109.07 212.192C107.598 212.192 106.302 211.904 105.182 211.328C104.078 210.752 103.222 209.968 102.614 208.976C102.006 207.968 101.702 206.824 101.702 205.544C101.702 204.248 101.998 203.104 102.59 202.112C103.198 201.104 104.022 200.32 105.062 199.76C106.102 199.184 107.278 198.896 108.59 198.896C109.854 198.896 110.99 199.168 111.998 199.712C113.022 200.24 113.83 201.008 114.422 202.016C115.014 203.008 115.31 204.2 115.31 205.592C115.31 205.736 115.302 205.904 115.286 206.096C115.27 206.272 115.254 206.44 115.238 206.6H104.75V204.416H113.27L111.83 205.064C111.83 204.392 111.694 203.808 111.422 203.312C111.15 202.816 110.774 202.432 110.294 202.16C109.814 201.872 109.254 201.728 108.614 201.728C107.974 201.728 107.406 201.872 106.91 202.16C106.43 202.432 106.054 202.824 105.782 203.336C105.51 203.832 105.374 204.424 105.374 205.112V205.688C105.374 206.392 105.526 207.016 105.83 207.56C106.15 208.088 106.59 208.496 107.15 208.784C107.726 209.056 108.398 209.192 109.166 209.192C109.854 209.192 110.454 209.088 110.966 208.88C111.494 208.672 111.974 208.36 112.406 207.944L114.398 210.104C113.806 210.776 113.062 211.296 112.166 211.664C111.27 212.016 110.238 212.192 109.07 212.192ZM125.65 198.896C126.674 198.896 127.586 199.104 128.386 199.52C129.202 199.92 129.842 200.544 130.306 201.392C130.77 202.224 131.002 203.296 131.002 204.608V212H127.258V205.184C127.258 204.144 127.026 203.376 126.562 202.88C126.114 202.384 125.474 202.136 124.642 202.136C124.05 202.136 123.514 202.264 123.034 202.52C122.57 202.76 122.202 203.136 121.93 203.648C121.674 204.16 121.546 204.816 121.546 205.616V212H117.802V199.088H121.378V202.664L120.706 201.584C121.17 200.72 121.834 200.056 122.698 199.592C123.562 199.128 124.546 198.896 125.65 198.896ZM139.676 212.192C138.156 212.192 136.972 211.808 136.124 211.04C135.276 210.256 134.852 209.096 134.852 207.56V196.232H138.596V207.512C138.596 208.056 138.74 208.48 139.028 208.784C139.316 209.072 139.708 209.216 140.204 209.216C140.796 209.216 141.3 209.056 141.716 208.736L142.724 211.376C142.34 211.648 141.876 211.856 141.332 212C140.804 212.128 140.252 212.192 139.676 212.192ZM132.86 202.256V199.376H141.812V202.256H132.86ZM150.571 212.192C149.195 212.192 147.971 211.904 146.899 211.328C145.843 210.752 145.003 209.968 144.379 208.976C143.771 207.968 143.467 206.824 143.467 205.544C143.467 204.248 143.771 203.104 144.379 202.112C145.003 201.104 145.843 200.32 146.899 199.76C147.971 199.184 149.195 198.896 150.571 198.896C151.931 198.896 153.147 199.184 154.219 199.76C155.291 200.32 156.131 201.096 156.739 202.088C157.347 203.08 157.651 204.232 157.651 205.544C157.651 206.824 157.347 207.968 156.739 208.976C156.131 209.968 155.291 210.752 154.219 211.328C153.147 211.904 151.931 212.192 150.571 212.192ZM150.571 209.12C151.195 209.12 151.755 208.976 152.251 208.688C152.747 208.4 153.139 207.992 153.427 207.464C153.715 206.92 153.859 206.28 153.859 205.544C153.859 204.792 153.715 204.152 153.427 203.624C153.139 203.096 152.747 202.688 152.251 202.4C151.755 202.112 151.195 201.968 150.571 201.968C149.947 201.968 149.387 202.112 148.891 202.4C148.395 202.688 147.995 203.096 147.691 203.624C147.403 204.152 147.259 204.792 147.259 205.544C147.259 206.28 147.403 206.92 147.691 207.464C147.995 207.992 148.395 208.4 148.891 208.688C149.387 208.976 149.947 209.12 150.571 209.12ZM172.495 212.192C171.279 212.192 170.183 211.92 169.207 211.376C168.231 210.816 167.455 210.04 166.879 209.048C166.319 208.056 166.039 206.888 166.039 205.544C166.039 204.184 166.319 203.008 166.879 202.016C167.455 201.024 168.231 200.256 169.207 199.712C170.183 199.168 171.279 198.896 172.495 198.896C173.583 198.896 174.535 199.136 175.351 199.616C176.167 200.096 176.799 200.824 177.247 201.8C177.695 202.776 177.919 204.024 177.919 205.544C177.919 207.048 177.703 208.296 177.271 209.288C176.839 210.264 176.215 210.992 175.399 211.472C174.599 211.952 173.631 212.192 172.495 212.192ZM173.143 209.12C173.751 209.12 174.303 208.976 174.799 208.688C175.295 208.4 175.687 207.992 175.975 207.464C176.279 206.92 176.431 206.28 176.431 205.544C176.431 204.792 176.279 204.152 175.975 203.624C175.687 203.096 175.295 202.688 174.799 202.4C174.303 202.112 173.751 201.968 173.143 201.968C172.519 201.968 171.959 202.112 171.463 202.4C170.967 202.688 170.567 203.096 170.263 203.624C169.975 204.152 169.831 204.792 169.831 205.544C169.831 206.28 169.975 206.92 170.263 207.464C170.567 207.992 170.967 208.4 171.463 208.688C171.959 208.976 172.519 209.12 173.143 209.12ZM176.527 212V209.36L176.599 205.52L176.359 201.704V194.192H180.103V212H176.527ZM189.976 212.192C188.504 212.192 187.208 211.904 186.088 211.328C184.984 210.752 184.128 209.968 183.52 208.976C182.912 207.968 182.608 206.824 182.608 205.544C182.608 204.248 182.904 203.104 183.496 202.112C184.104 201.104 184.928 200.32 185.968 199.76C187.008 199.184 188.184 198.896 189.496 198.896C190.76 198.896 191.896 199.168 192.904 199.712C193.928 200.24 194.736 201.008 195.328 202.016C195.92 203.008 196.216 204.2 196.216 205.592C196.216 205.736 196.208 205.904 196.192 206.096C196.176 206.272 196.16 206.44 196.144 206.6H185.656V204.416H194.176L192.736 205.064C192.736 204.392 192.6 203.808 192.328 203.312C192.056 202.816 191.68 202.432 191.2 202.16C190.72 201.872 190.16 201.728 189.52 201.728C188.88 201.728 188.312 201.872 187.816 202.16C187.336 202.432 186.96 202.824 186.688 203.336C186.416 203.832 186.28 204.424 186.28 205.112V205.688C186.28 206.392 186.432 207.016 186.736 207.56C187.056 208.088 187.496 208.496 188.056 208.784C188.632 209.056 189.304 209.192 190.072 209.192C190.76 209.192 191.36 209.088 191.872 208.88C192.4 208.672 192.88 208.36 193.312 207.944L195.304 210.104C194.712 210.776 193.968 211.296 193.072 211.664C192.176 212.016 191.144 212.192 189.976 212.192ZM211.913 212.192C210.441 212.192 209.145 211.904 208.025 211.328C206.921 210.752 206.065 209.968 205.457 208.976C204.849 207.968 204.545 206.824 204.545 205.544C204.545 204.248 204.841 203.104 205.433 202.112C206.041 201.104 206.865 200.32 207.905 199.76C208.945 199.184 210.121 198.896 211.433 198.896C212.697 198.896 213.833 199.168 214.841 199.712C215.865 200.24 216.673 201.008 217.265 202.016C217.857 203.008 218.153 204.2 218.153 205.592C218.153 205.736 218.145 205.904 218.129 206.096C218.113 206.272 218.097 206.44 218.081 206.6H207.593V204.416H216.113L214.673 205.064C214.673 204.392 214.537 203.808 214.265 203.312C213.993 202.816 213.617 202.432 213.137 202.16C212.657 201.872 212.097 201.728 211.457 201.728C210.817 201.728 210.249 201.872 209.753 202.16C209.273 202.432 208.897 202.824 208.625 203.336C208.353 203.832 208.217 204.424 208.217 205.112V205.688C208.217 206.392 208.369 207.016 208.673 207.56C208.993 208.088 209.433 208.496 209.993 208.784C210.569 209.056 211.241 209.192 212.009 209.192C212.697 209.192 213.297 209.088 213.809 208.88C214.337 208.672 214.817 208.36 215.249 207.944L217.241 210.104C216.649 210.776 215.905 211.296 215.009 211.664C214.113 212.016 213.081 212.192 211.913 212.192ZM221.102 212V198.8C221.102 197.344 221.534 196.184 222.398 195.32C223.262 194.44 224.494 194 226.094 194C226.638 194 227.158 194.056 227.654 194.168C228.166 194.28 228.598 194.456 228.95 194.696L227.966 197.408C227.758 197.264 227.526 197.152 227.27 197.072C227.014 196.992 226.742 196.952 226.454 196.952C225.91 196.952 225.486 197.112 225.182 197.432C224.894 197.736 224.75 198.2 224.75 198.824V200.024L224.846 201.632V212H221.102ZM219.11 202.256V199.376H228.062V202.256H219.11ZM230.174 212V199.088H233.918V212H230.174ZM232.046 197.288C231.358 197.288 230.798 197.088 230.366 196.688C229.934 196.288 229.718 195.792 229.718 195.2C229.718 194.608 229.934 194.112 230.366 193.712C230.798 193.312 231.358 193.112 232.046 193.112C232.734 193.112 233.294 193.304 233.726 193.688C234.158 194.056 234.374 194.536 234.374 195.128C234.374 195.752 234.158 196.272 233.726 196.688C233.31 197.088 232.75 197.288 232.046 197.288ZM243.62 212.192C242.228 212.192 240.988 211.912 239.9 211.352C238.812 210.776 237.956 209.984 237.332 208.976C236.724 207.968 236.42 206.824 236.42 205.544C236.42 204.248 236.724 203.104 237.332 202.112C237.956 201.104 238.812 200.32 239.9 199.76C240.988 199.184 242.228 198.896 243.62 198.896C244.98 198.896 246.164 199.184 247.172 199.76C248.18 200.32 248.924 201.128 249.404 202.184L246.5 203.744C246.164 203.136 245.74 202.688 245.228 202.4C244.732 202.112 244.188 201.968 243.596 201.968C242.956 201.968 242.38 202.112 241.868 202.4C241.356 202.688 240.948 203.096 240.644 203.624C240.356 204.152 240.212 204.792 240.212 205.544C240.212 206.296 240.356 206.936 240.644 207.464C240.948 207.992 241.356 208.4 241.868 208.688C242.38 208.976 242.956 209.12 243.596 209.12C244.188 209.12 244.732 208.984 245.228 208.712C245.74 208.424 246.164 207.968 246.5 207.344L249.404 208.928C248.924 209.968 248.18 210.776 247.172 211.352C246.164 211.912 244.98 212.192 243.62 212.192ZM251.49 212V199.088H255.234V212H251.49ZM253.362 197.288C252.674 197.288 252.114 197.088 251.682 196.688C251.25 196.288 251.034 195.792 251.034 195.2C251.034 194.608 251.25 194.112 251.682 193.712C252.114 193.312 252.674 193.112 253.362 193.112C254.05 193.112 254.61 193.304 255.042 193.688C255.474 194.056 255.69 194.536 255.69 195.128C255.69 195.752 255.474 196.272 255.042 196.688C254.626 197.088 254.066 197.288 253.362 197.288ZM265.116 212.192C263.644 212.192 262.348 211.904 261.228 211.328C260.124 210.752 259.268 209.968 258.66 208.976C258.052 207.968 257.748 206.824 257.748 205.544C257.748 204.248 258.044 203.104 258.636 202.112C259.244 201.104 260.068 200.32 261.108 199.76C262.148 199.184 263.324 198.896 264.636 198.896C265.9 198.896 267.036 199.168 268.044 199.712C269.068 200.24 269.876 201.008 270.468 202.016C271.06 203.008 271.356 204.2 271.356 205.592C271.356 205.736 271.348 205.904 271.332 206.096C271.316 206.272 271.3 206.44 271.284 206.6H260.796V204.416H269.316L267.876 205.064C267.876 204.392 267.74 203.808 267.468 203.312C267.196 202.816 266.82 202.432 266.34 202.16C265.86 201.872 265.3 201.728 264.66 201.728C264.02 201.728 263.452 201.872 262.956 202.16C262.476 202.432 262.1 202.824 261.828 203.336C261.556 203.832 261.42 204.424 261.42 205.112V205.688C261.42 206.392 261.572 207.016 261.876 207.56C262.196 208.088 262.636 208.496 263.196 208.784C263.772 209.056 264.444 209.192 265.212 209.192C265.9 209.192 266.5 209.088 267.012 208.88C267.54 208.672 268.02 208.36 268.452 207.944L270.444 210.104C269.852 210.776 269.108 211.296 268.212 211.664C267.316 212.016 266.284 212.192 265.116 212.192ZM259.74 197.432L262.908 193.976H266.22L269.388 197.432H266.652L263.34 194.552H265.788L262.476 197.432H259.74ZM281.697 198.896C282.721 198.896 283.633 199.104 284.433 199.52C285.249 199.92 285.889 200.544 286.353 201.392C286.817 202.224 287.049 203.296 287.049 204.608V212H283.305V205.184C283.305 204.144 283.073 203.376 282.609 202.88C282.161 202.384 281.521 202.136 280.689 202.136C280.097 202.136 279.561 202.264 279.081 202.52C278.617 202.76 278.249 203.136 277.977 203.648C277.721 204.16 277.593 204.816 277.593 205.616V212H273.849V199.088H277.425V202.664L276.753 201.584C277.217 200.72 277.881 200.056 278.745 199.592C279.609 199.128 280.593 198.896 281.697 198.896ZM296.777 212.192C295.385 212.192 294.145 211.912 293.057 211.352C291.969 210.776 291.113 209.984 290.489 208.976C289.881 207.968 289.577 206.824 289.577 205.544C289.577 204.248 289.881 203.104 290.489 202.112C291.113 201.104 291.969 200.32 293.057 199.76C294.145 199.184 295.385 198.896 296.777 198.896C298.137 198.896 299.321 199.184 300.329 199.76C301.337 200.32 302.081 201.128 302.561 202.184L299.657 203.744C299.321 203.136 298.897 202.688 298.385 202.4C297.889 202.112 297.345 201.968 296.753 201.968C296.113 201.968 295.537 202.112 295.025 202.4C294.513 202.688 294.105 203.096 293.801 203.624C293.513 204.152 293.369 204.792 293.369 205.544C293.369 206.296 293.513 206.936 293.801 207.464C294.105 207.992 294.513 208.4 295.025 208.688C295.537 208.976 296.113 209.12 296.753 209.12C297.345 209.12 297.889 208.984 298.385 208.712C298.897 208.424 299.321 207.968 299.657 207.344L302.561 208.928C302.081 209.968 301.337 210.776 300.329 211.352C299.321 211.912 298.137 212.192 296.777 212.192ZM304.646 212V199.088H308.39V212H304.646ZM306.518 197.288C305.83 197.288 305.27 197.088 304.838 196.688C304.406 196.288 304.19 195.792 304.19 195.2C304.19 194.608 304.406 194.112 304.838 193.712C305.27 193.312 305.83 193.112 306.518 193.112C307.206 193.112 307.766 193.304 308.198 193.688C308.63 194.056 308.846 194.536 308.846 195.128C308.846 195.752 308.63 196.272 308.198 196.688C307.782 197.088 307.222 197.288 306.518 197.288ZM319.785 212V209.48L319.545 208.928V204.416C319.545 203.616 319.297 202.992 318.801 202.544C318.321 202.096 317.577 201.872 316.569 201.872C315.881 201.872 315.201 201.984 314.529 202.208C313.873 202.416 313.313 202.704 312.849 203.072L311.505 200.456C312.209 199.96 313.057 199.576 314.049 199.304C315.041 199.032 316.049 198.896 317.073 198.896C319.041 198.896 320.569 199.36 321.657 200.288C322.745 201.216 323.289 202.664 323.289 204.632V212H319.785ZM315.849 212.192C314.841 212.192 313.977 212.024 313.257 211.688C312.537 211.336 311.985 210.864 311.601 210.272C311.217 209.68 311.025 209.016 311.025 208.28C311.025 207.512 311.209 206.84 311.577 206.264C311.961 205.688 312.561 205.24 313.377 204.92C314.193 204.584 315.257 204.416 316.569 204.416H320.001V206.6H316.977C316.097 206.6 315.489 206.744 315.153 207.032C314.833 207.32 314.673 207.68 314.673 208.112C314.673 208.592 314.857 208.976 315.225 209.264C315.609 209.536 316.129 209.672 316.785 209.672C317.409 209.672 317.969 209.528 318.465 209.24C318.961 208.936 319.321 208.496 319.545 207.92L320.121 209.648C319.849 210.48 319.353 211.112 318.633 211.544C317.913 211.976 316.985 212.192 315.849 212.192Z" fill="white"/>
<defs>
<linearGradient id="paint0_linear_1083_92" x1="183" y1="16" x2="183" y2="249" gradientUnits="userSpaceOnUse">
<stop stop-color="#00B3DB"/>
<stop offset="0.21" stop-color="#8F599C"/>
<stop offset="0.405" stop-color="#CF317F"/>
</linearGradient>
</defs>
</svg>
