<svg width="128" height="178" viewBox="0 0 128 178" fill="none" xmlns="http://www.w3.org/2000/svg">
<path d="M59.058 127.412C47.852 126.337 37.805 123.009 29.77 117.712L28.082 116.599L27.676 113.466C27.226 109.978 26.754 104.431 26.758 102.606V101.416L32 101.373C34.883 101.349 38.117 101.24 39.188 101.123C40.887 100.943 41.223 100.974 41.84 101.361C47.555 104.947 56.285 107.326 63.711 107.318C75.61 107.31 86.125 102.923 94.613 94.4278C98.367 90.6688 100.43 87.8448 102.683 83.3678C108.871 71.0948 109.004 57.0518 103.055 44.7668C97.165 32.6068 85.68 23.6728 72.555 21.0478C69.172 20.3678 64.512 20.0088 61.727 20.2078L59.457 20.3728L60.031 19.5598C60.351 19.1148 62.457 16.8598 64.715 14.5518L68.821 10.3568L67.133 8.78677C64.746 6.55977 61.449 3.80977 58.977 1.97777L56.86 0.411767L57.656 0.223767C59.231 -0.147233 68.422 -0.0342327 71.711 0.395767C98.735 3.92677 120.305 23.5558 126.161 49.9508C128.078 58.5798 128.117 68.1378 126.278 77.0678C123.953 88.3378 118.043 99.4508 109.836 107.978C99.1944 119.027 84.9385 125.888 69.664 127.31C67.117 127.548 61.069 127.603 59.058 127.412ZM19.071 109.068C15.449 105.451 10.555 99.5758 10.887 99.2438C10.949 99.1808 12.317 99.3998 13.922 99.7238C16.36 100.22 21.844 101.052 22.672 101.052C22.797 101.052 22.902 102.087 22.906 103.404C22.91 105.56 23.136 108.65 23.524 111.841C23.633 112.74 23.594 113.107 23.394 113.107C23.238 113.107 21.289 111.291 19.071 109.068ZM26.758 96.1458C26.758 94.2048 27.262 88.4228 27.449 88.2198C27.539 88.1258 28.301 88.9578 29.145 90.0718C29.985 91.1888 31.891 93.3018 33.379 94.7668L36.082 97.4388H26.758V96.1458ZM21.813 97.0328C17.781 96.5368 9.593 94.9628 8.942 94.5598C8.742 94.4348 8.981 93.4658 9.782 91.1498C10.84 88.1028 13.336 82.1148 13.727 81.6968C13.824 81.5948 15.141 82.1538 16.653 82.9428C18.168 83.7318 20.363 84.7868 21.539 85.2938L23.672 86.2078L23.524 87.3098C23.184 89.8798 22.91 93.3568 22.906 95.2078C22.903 96.3018 22.816 97.1808 22.719 97.1618C22.617 97.1418 22.211 97.0838 21.813 97.0328ZM4.285 86.6618C2.96928 83.1992 1.93852 79.6351 1.203 76.0048C0.458 72.3098 0.481 72.2828 2.778 74.0948C3.84 74.9348 5.875 76.4148 7.298 77.3798C8.718 78.3498 9.883 79.1808 9.883 79.2238C9.883 79.2708 9.438 80.2708 8.895 81.4428C8.1637 83.0611 7.47183 84.6969 6.82 86.3488C6.223 87.8718 5.656 89.2088 5.555 89.3138C5.457 89.4188 4.887 88.2238 4.285 86.6618ZM21.625 80.4268C19.774 79.5758 16.415 77.8608 15.957 77.5368C15.863 77.4698 18.34 73.3878 19.602 71.5328L20.59 70.0758L20.762 70.8018C21.867 75.4268 22.532 77.7788 23.219 79.4898C23.669 80.6098 24.024 81.5248 24.012 81.5248C23.996 81.5208 22.922 81.0288 21.625 80.4268ZM9.008 73.1898C6.406 71.3728 2.058 67.9518 1.785 67.5098C1.528 67.0918 10.387 58.5058 11.078 58.5058C11.192 58.5058 12.153 59.6458 13.211 61.0378C14.274 62.4318 15.691 64.2018 16.367 64.9708C17.043 65.7408 17.597 66.4208 17.597 66.4828C17.597 66.5448 16.747 67.8698 15.703 69.4238C14.664 70.9748 13.457 72.8738 13.028 73.6348C12.598 74.3968 12.11 75.0218 11.938 75.0218C11.77 75.0218 10.449 74.1978 9.008 73.1898ZM0 61.6338C0.035 58.6068 1.055 51.7118 2.055 47.7508C3.047 43.8298 2.852 43.8568 4.653 47.4188C5.52 49.1418 6.711 51.3528 7.293 52.3368L8.352 54.1188L6.524 55.6848C5.52 56.5448 3.641 58.2898 2.348 59.5598C1.055 60.8328 0 61.7668 0 61.6338ZM19.38 60.8408C17.477 58.5708 15.203 55.4188 15.324 55.2238C15.488 54.9578 18.297 53.0518 20.582 51.6538C22.113 50.7158 22.231 50.6808 22.078 51.1968C21.516 53.1218 20.718 57.1688 20.496 59.2168C20.352 60.5328 20.211 61.6378 20.18 61.6688C20.149 61.7008 19.79 61.3258 19.38 60.8408ZM11.016 48.7708C8.516 44.4148 5.629 38.1848 5.965 37.8758C6.505 37.3718 15.668 34.8058 18.375 34.3998L19.43 34.2398L19.961 37.4548C20.251 39.2248 20.738 41.7078 21.047 42.9778L21.606 45.2898L19.626 46.4148C18.536 47.0368 16.449 48.3408 14.992 49.3138L12.344 51.0838L11.016 48.7708ZM25.821 38.7938C25.5677 37.4428 25.3317 36.0887 25.113 34.7318L24.91 33.3718L26.14 33.2278C26.82 33.1498 28.672 33.0128 30.258 32.9278L33.145 32.7748L32.156 33.8298C30.524 35.5718 28.668 37.9118 27.461 39.7598L26.324 41.4968L25.821 38.7938ZM9.661 29.9778C11.309 27.1848 16.516 20.5558 18.281 18.9978L18.801 18.5368V28.6688L16.691 29.0788C14.856 29.4348 10.934 30.3918 9.539 30.8218C9.113 30.9548 9.122 30.8838 9.661 29.9778ZM24.391 21.8018C24.434 18.4778 24.531 15.6968 24.61 15.6188C24.88 15.3448 36.164 17.5908 36.59 18.0008C36.63 18.0408 36.29 19.3018 35.836 20.8098C35.379 22.3218 34.816 24.3798 34.582 25.3838L34.156 27.2198L30.758 27.3698C28.887 27.4518 26.672 27.5918 25.836 27.6818L24.313 27.8458L24.391 21.8018ZM40.496 26.7438C40.496 26.6338 41.453 23.1768 41.961 21.4578L42.438 19.8488L45.383 21.0598C49.285 22.6648 49.196 22.6068 48.324 22.9698C46.289 23.8258 42.934 25.4498 41.903 26.0868C40.809 26.7588 40.496 26.9038 40.496 26.7438ZM51.344 17.0558C50.481 16.6228 48.621 15.8018 47.211 15.2318L44.645 14.1968L44.895 13.4818C45.211 12.5758 48.742 5.49677 49.403 4.44177L49.899 3.64977L51.406 4.66477C53.379 6.00077 57.004 8.71177 58.199 9.75077L59.149 10.5758L56.629 13.4508C55.246 15.0288 53.844 16.6648 53.512 17.0828L52.91 17.8488L51.344 17.0558ZM35.554 11.4778C33.9943 11.0795 32.4281 10.7071 30.856 10.3608L29.286 10.0368L31.41 8.77477C32.6773 8.02931 33.9645 7.31805 35.27 6.64177C37.125 5.70477 42.719 3.39977 42.84 3.52077C42.88 3.55977 42.45 4.50477 41.88 5.61877C41.313 6.73177 40.422 8.61877 39.903 9.81377C39.383 11.0048 38.899 12.0478 38.824 12.1258C38.75 12.2048 37.278 11.9118 35.554 11.4778Z" fill="#3EB049"/>
<path d="M8.96578 164L15.3658 150H16.8258L23.2258 164H21.6658L15.7858 150.86H16.3858L10.5058 164H8.96578ZM11.4858 160.26L11.9258 159.06H20.0658L20.5058 160.26H11.4858ZM30.6017 153.4C31.4551 153.4 32.2017 153.567 32.8417 153.9C33.4951 154.22 34.0017 154.713 34.3617 155.38C34.7351 156.047 34.9217 156.887 34.9217 157.9V164H33.5017V158.04C33.5017 156.933 33.2217 156.1 32.6617 155.54C32.1151 154.967 31.3417 154.68 30.3417 154.68C29.5951 154.68 28.9417 154.833 28.3817 155.14C27.8351 155.433 27.4084 155.867 27.1017 156.44C26.8084 157 26.6617 157.68 26.6617 158.48V164H25.2417V153.5H26.6017V156.38L26.3817 155.84C26.7151 155.08 27.2484 154.487 27.9817 154.06C28.7151 153.62 29.5884 153.4 30.6017 153.4ZM45.3373 164V161.68L45.2773 161.3V157.42C45.2773 156.527 45.024 155.84 44.5173 155.36C44.024 154.88 43.284 154.64 42.2973 154.64C41.6173 154.64 40.9707 154.753 40.3573 154.98C39.744 155.207 39.224 155.507 38.7973 155.88L38.1573 154.82C38.6907 154.367 39.3307 154.02 40.0773 153.78C40.824 153.527 41.6107 153.4 42.4373 153.4C43.7973 153.4 44.844 153.74 45.5773 154.42C46.324 155.087 46.6973 156.107 46.6973 157.48V164H45.3373ZM41.7173 164.1C40.9307 164.1 40.244 163.973 39.6573 163.72C39.084 163.453 38.644 163.093 38.3373 162.64C38.0307 162.173 37.8773 161.64 37.8773 161.04C37.8773 160.493 38.004 160 38.2573 159.56C38.524 159.107 38.9507 158.747 39.5373 158.48C40.1373 158.2 40.9373 158.06 41.9373 158.06H45.5573V159.12H41.9773C40.964 159.12 40.2573 159.3 39.8573 159.66C39.4707 160.02 39.2773 160.467 39.2773 161C39.2773 161.6 39.5107 162.08 39.9773 162.44C40.444 162.8 41.0973 162.98 41.9373 162.98C42.7373 162.98 43.424 162.8 43.9973 162.44C44.584 162.067 45.0107 161.533 45.2773 160.84L45.5973 161.82C45.3307 162.513 44.864 163.067 44.1973 163.48C43.544 163.893 42.7173 164.1 41.7173 164.1ZM54.9142 164.1C53.8742 164.1 52.9409 163.873 52.1142 163.42C51.3009 162.953 50.6609 162.32 50.1942 161.52C49.7276 160.707 49.4942 159.78 49.4942 158.74C49.4942 157.687 49.7276 156.76 50.1942 155.96C50.6609 155.16 51.3009 154.533 52.1142 154.08C52.9409 153.627 53.8742 153.4 54.9142 153.4C55.8076 153.4 56.6142 153.573 57.3342 153.92C58.0542 154.267 58.6209 154.787 59.0342 155.48L57.9742 156.2C57.6142 155.667 57.1676 155.273 56.6342 155.02C56.1009 154.767 55.5209 154.64 54.8942 154.64C54.1476 154.64 53.4742 154.813 52.8742 155.16C52.2742 155.493 51.8009 155.967 51.4542 156.58C51.1076 157.193 50.9342 157.913 50.9342 158.74C50.9342 159.567 51.1076 160.287 51.4542 160.9C51.8009 161.513 52.2742 161.993 52.8742 162.34C53.4742 162.673 54.1476 162.84 54.8942 162.84C55.5209 162.84 56.1009 162.713 56.6342 162.46C57.1676 162.207 57.6142 161.82 57.9742 161.3L59.0342 162.02C58.6209 162.7 58.0542 163.22 57.3342 163.58C56.6142 163.927 55.8076 164.1 54.9142 164.1ZM65.928 164.1C64.9146 164.1 64.0013 163.873 63.188 163.42C62.388 162.953 61.7546 162.32 61.288 161.52C60.8213 160.707 60.588 159.78 60.588 158.74C60.588 157.687 60.8213 156.76 61.288 155.96C61.7546 155.16 62.388 154.533 63.188 154.08C63.988 153.627 64.9013 153.4 65.928 153.4C66.968 153.4 67.888 153.627 68.688 154.08C69.5013 154.533 70.1346 155.16 70.588 155.96C71.0546 156.76 71.288 157.687 71.288 158.74C71.288 159.78 71.0546 160.707 70.588 161.52C70.1346 162.32 69.5013 162.953 68.688 163.42C67.8746 163.873 66.9546 164.1 65.928 164.1ZM65.928 162.84C66.688 162.84 67.3613 162.673 67.948 162.34C68.5346 161.993 68.9946 161.513 69.328 160.9C69.6746 160.273 69.848 159.553 69.848 158.74C69.848 157.913 69.6746 157.193 69.328 156.58C68.9946 155.967 68.5346 155.493 67.948 155.16C67.3613 154.813 66.6946 154.64 65.948 154.64C65.2013 154.64 64.5346 154.813 63.948 155.16C63.3613 155.493 62.8946 155.967 62.548 156.58C62.2013 157.193 62.028 157.913 62.028 158.74C62.028 159.553 62.2013 160.273 62.548 160.9C62.8946 161.513 63.3613 161.993 63.948 162.34C64.5346 162.673 65.1946 162.84 65.928 162.84ZM79.547 153.4C80.4004 153.4 81.147 153.567 81.787 153.9C82.4404 154.22 82.947 154.713 83.307 155.38C83.6804 156.047 83.867 156.887 83.867 157.9V164H82.447V158.04C82.447 156.933 82.167 156.1 81.607 155.54C81.0604 154.967 80.287 154.68 79.287 154.68C78.5404 154.68 77.887 154.833 77.327 155.14C76.7804 155.433 76.3537 155.867 76.047 156.44C75.7537 157 75.607 157.68 75.607 158.48V164H74.187V153.5H75.547V156.38L75.327 155.84C75.6604 155.08 76.1937 154.487 76.927 154.06C77.6604 153.62 78.5337 153.4 79.547 153.4ZM91.8827 164.1C90.8827 164.1 89.9827 163.873 89.1827 163.42C88.396 162.967 87.776 162.34 87.3227 161.54C86.8693 160.727 86.6427 159.793 86.6427 158.74C86.6427 157.673 86.8693 156.74 87.3227 155.94C87.776 155.14 88.396 154.52 89.1827 154.08C89.9827 153.627 90.8827 153.4 91.8827 153.4C92.8027 153.4 93.6227 153.607 94.3427 154.02C95.076 154.433 95.656 155.04 96.0827 155.84C96.5227 156.627 96.7427 157.593 96.7427 158.74C96.7427 159.873 96.5293 160.84 96.1027 161.64C95.676 162.44 95.096 163.053 94.3627 163.48C93.6427 163.893 92.816 164.1 91.8827 164.1ZM91.9827 162.84C92.7293 162.84 93.396 162.673 93.9827 162.34C94.5827 161.993 95.0493 161.513 95.3827 160.9C95.7293 160.273 95.9027 159.553 95.9027 158.74C95.9027 157.913 95.7293 157.193 95.3827 156.58C95.0493 155.967 94.5827 155.493 93.9827 155.16C93.396 154.813 92.7293 154.64 91.9827 154.64C91.2493 154.64 90.5893 154.813 90.0027 155.16C89.416 155.493 88.9493 155.967 88.6027 156.58C88.256 157.193 88.0827 157.913 88.0827 158.74C88.0827 159.553 88.256 160.273 88.6027 160.9C88.9493 161.513 89.416 161.993 90.0027 162.34C90.5893 162.673 91.2493 162.84 91.9827 162.84ZM95.9427 164V160.84L96.0827 158.72L95.8827 156.6V149.16H97.3027V164H95.9427ZM107.837 164V161.68L107.777 161.3V157.42C107.777 156.527 107.524 155.84 107.017 155.36C106.524 154.88 105.784 154.64 104.797 154.64C104.117 154.64 103.471 154.753 102.857 154.98C102.244 155.207 101.724 155.507 101.297 155.88L100.657 154.82C101.191 154.367 101.831 154.02 102.577 153.78C103.324 153.527 104.111 153.4 104.937 153.4C106.297 153.4 107.344 153.74 108.077 154.42C108.824 155.087 109.197 156.107 109.197 157.48V164H107.837ZM104.217 164.1C103.431 164.1 102.744 163.973 102.157 163.72C101.584 163.453 101.144 163.093 100.837 162.64C100.531 162.173 100.377 161.64 100.377 161.04C100.377 160.493 100.504 160 100.757 159.56C101.024 159.107 101.451 158.747 102.037 158.48C102.637 158.2 103.437 158.06 104.437 158.06H108.057V159.12H104.477C103.464 159.12 102.757 159.3 102.357 159.66C101.971 160.02 101.777 160.467 101.777 161C101.777 161.6 102.011 162.08 102.477 162.44C102.944 162.8 103.597 162.98 104.437 162.98C105.237 162.98 105.924 162.8 106.497 162.44C107.084 162.067 107.511 161.533 107.777 160.84L108.097 161.82C107.831 162.513 107.364 163.067 106.697 163.48C106.044 163.893 105.217 164.1 104.217 164.1Z" fill="white"/>
</svg>
