<svg width="146" height="175" viewBox="0 0 146 175" fill="none" xmlns="http://www.w3.org/2000/svg">
<path d="M68.9231 23.4941H129.231V46.4651H68.9231V23.4941Z" fill="white"/>
<path d="M14.359 98.4866C9.04759 98.4866 4.42041 95.7659 1.93631 91.7305C0.712205 93.7195 0 96.0227 0 98.4866C0 105.95 6.42851 111.999 14.359 111.999H28.7179V98.4866H14.359Z" fill="#3ECC5F"/>
<path d="M78.9603 27.1259L129.231 24.1694V17.4132C129.231 9.95032 122.802 3.90084 114.872 3.90084H50.2567L48.4618 0.975422C47.6635 -0.325141 45.6697 -0.325141 44.8721 0.975422L43.0772 3.90084L41.2824 0.975422C40.484 -0.325141 38.4903 -0.325141 37.6926 0.975422L35.8978 3.90084L34.1029 0.975422C33.3045 -0.325141 31.3108 -0.325141 30.5131 0.975422L28.7183 3.90084C28.7025 3.90084 28.6874 3.90287 28.6716 3.90287L25.6979 1.10514C24.57 0.0437462 22.6444 0.528839 22.2309 1.97939L21.2487 5.42774L17.5204 4.48728C15.979 4.0988 14.5689 5.42571 14.9825 6.87626L15.9811 10.3847L12.3175 11.3083C10.776 11.6975 10.2598 13.5101 11.3877 14.5715L14.3607 17.3699C14.3607 17.3841 14.3593 17.3983 14.3593 17.4132L11.2499 19.1022C9.86853 19.8528 9.86853 21.7297 11.2499 22.4803L14.3593 24.1694L11.2499 25.8584C9.86853 26.609 9.86853 28.4859 11.2499 29.2365L14.3593 30.9255L11.2499 32.6146C9.86853 33.3652 9.86853 35.2421 11.2499 35.9927L14.3593 37.6817L11.2499 39.3707C9.86853 40.1214 9.86853 41.9982 11.2499 42.7488L14.3593 44.4379L11.2499 46.1269C9.86853 46.8775 9.86853 48.7544 11.2499 49.505L14.3593 51.194L11.2499 52.8831C9.86853 53.6337 9.86853 55.5106 11.2499 56.2612L14.3593 57.9502L11.2499 59.6393C9.86853 60.3899 9.86853 62.2667 11.2499 63.0173L14.3593 64.7064L11.2499 66.3954C9.86853 67.146 9.86853 69.0229 11.2499 69.7735L14.3593 71.4626L11.2499 73.1516C9.86853 73.9022 9.86853 75.7791 11.2499 76.5297L14.3593 78.2187L11.2499 79.9078C9.86853 80.6584 9.86853 82.5352 11.2499 83.2859L14.3593 84.9749L11.2499 86.6639C9.86853 87.4146 9.86853 89.2914 11.2499 90.042L14.3593 91.7311L11.2499 93.4201C9.86853 94.1707 9.86853 96.0476 11.2499 96.7982L14.3593 98.4873C14.3593 105.95 20.7878 112 28.7183 112H114.872C122.802 112 129.231 105.95 129.231 98.4873V44.4379L78.9603 41.4814C74.9326 41.2442 71.7952 38.1013 71.7952 34.3036C71.7952 30.506 74.9326 27.363 78.9603 27.1259Z" fill="#3ECC5F"/>
<path d="M100.513 111.999H122.051V84.9746H100.513V111.999Z" fill="#3ECC5F"/>
<path d="M136.41 95.11C136.253 95.11 136.103 95.135 135.951 95.1532C135.924 95.0519 135.898 94.9499 135.868 94.8485C137.165 94.3391 138.076 93.1365 138.076 91.7319C138.076 89.8659 136.469 88.3538 134.486 88.3538C133.669 88.3538 132.924 88.6214 132.321 89.0538C132.241 88.9774 132.161 88.9018 132.08 88.8268C132.53 88.2619 132.806 87.5688 132.806 86.8087C132.806 84.9426 131.199 83.4306 129.216 83.4306C127.734 83.4306 126.461 84.2772 125.914 85.4852C125.808 85.4568 125.701 85.4331 125.595 85.4075C125.614 85.2649 125.641 85.1237 125.641 84.9757C125.641 83.1097 124.034 81.5977 122.051 81.5977C120.068 81.5977 118.461 83.1097 118.461 84.9757C118.461 85.1237 118.488 85.2649 118.507 85.4075C118.401 85.4331 118.294 85.4568 118.188 85.4852C117.641 84.2772 116.369 83.4306 114.886 83.4306C112.903 83.4306 111.296 84.9426 111.296 86.8087C111.296 87.5688 111.572 88.2619 112.022 88.8268C109.353 91.2806 107.692 94.6999 107.692 98.4881C107.692 105.951 114.121 112 122.051 112C128.756 112 134.371 107.67 135.951 101.823C136.103 101.841 136.253 101.866 136.41 101.866C138.393 101.866 140 100.354 140 98.4881C140 96.622 138.393 95.11 136.41 95.11Z" fill="#44D860"/>
<path d="M107.692 71.4635H129.231V57.9512H107.692V71.4635Z" fill="#3ECC5F"/>
<path d="M136.41 66.3959C137.402 66.3959 138.205 65.6398 138.205 64.7068C138.205 63.7738 137.402 63.0178 136.41 63.0178C136.332 63.0178 136.257 63.0306 136.181 63.0394C136.167 62.9887 136.155 62.938 136.14 62.8874C136.787 62.6327 137.243 62.0307 137.243 61.3287C137.243 60.3957 136.44 59.6397 135.448 59.6397C135.04 59.6397 134.667 59.7728 134.366 59.9897C134.326 59.9511 134.286 59.9133 134.245 59.8762C134.47 59.5944 134.608 59.2471 134.608 58.8668C134.608 57.9344 133.805 57.1777 132.813 57.1777C132.072 57.1777 131.436 57.6013 131.162 58.2053C130.547 58.0439 129.901 57.9506 129.231 57.9506C125.266 57.9506 122.051 60.9761 122.051 64.7068C122.051 68.4376 125.266 71.463 129.231 71.463C129.901 71.463 130.547 71.3698 131.162 71.2083C131.436 71.8123 132.072 72.2359 132.813 72.2359C133.805 72.2359 134.608 71.4792 134.608 70.5468C134.608 70.1665 134.47 69.8192 134.245 69.5375C134.286 69.5003 134.326 69.4625 134.366 69.424C134.667 69.6408 135.04 69.7739 135.448 69.7739C136.44 69.7739 137.243 69.0179 137.243 68.0849C137.243 67.3829 136.787 66.781 136.14 66.5262C136.155 66.4763 136.167 66.4249 136.181 66.3742C136.257 66.383 136.332 66.3959 136.41 66.3959Z" fill="#44D860"/>
<path d="M43.0771 25.8589C42.0856 25.8589 41.2822 25.1029 41.2822 24.1698C41.2822 21.3755 38.867 19.1027 35.8976 19.1027C32.9281 19.1027 30.513 21.3755 30.513 24.1698C30.513 25.1029 29.7096 25.8589 28.7181 25.8589C27.7266 25.8589 26.9232 25.1029 26.9232 24.1698C26.9232 19.5128 30.9488 15.7246 35.8976 15.7246C40.8464 15.7246 44.8719 19.5128 44.8719 24.1698C44.8719 25.1029 44.0685 25.8589 43.0771 25.8589Z" fill="black"/>
<path d="M71.7949 111.999H114.872C122.802 111.999 129.231 105.949 129.231 98.4866V51.1934H86.1539C78.2234 51.1934 71.7949 57.2428 71.7949 64.7057V111.999Z" fill="#FFFF50"/>
<path d="M118.475 72.1383H82.55C82.153 72.1383 81.832 71.8363 81.832 71.4627C81.832 71.0891 82.153 70.7871 82.55 70.7871H118.475C118.872 70.7871 119.193 71.0891 119.193 71.4627C119.193 71.8363 118.872 72.1383 118.475 72.1383Z" fill="black"/>
<path d="M118.475 85.6501H82.55C82.153 85.6501 81.832 85.3481 81.832 84.9744C81.832 84.6008 82.153 84.2988 82.55 84.2988H118.475C118.872 84.2988 119.193 84.6008 119.193 84.9744C119.193 85.3481 118.872 85.6501 118.475 85.6501Z" fill="black"/>
<path d="M118.475 99.1637H82.55C82.153 99.1637 81.832 98.8617 81.832 98.4881C81.832 98.1145 82.153 97.8125 82.55 97.8125H118.475C118.872 97.8125 119.193 98.1145 119.193 98.4881C119.193 98.8617 118.872 99.1637 118.475 99.1637Z" fill="black"/>
<path d="M118.475 65.5075H82.55C82.153 65.5075 81.832 65.2048 81.832 64.8319C81.832 64.4583 82.153 64.1562 82.55 64.1562H118.475C118.872 64.1562 119.193 64.4583 119.193 64.8319C119.193 65.2048 118.872 65.5075 118.475 65.5075Z" fill="black"/>
<path d="M118.475 78.8942H82.55C82.153 78.8942 81.832 78.5922 81.832 78.2186C81.832 77.845 82.153 77.543 82.55 77.543H118.475C118.872 77.543 119.193 77.845 119.193 78.2186C119.193 78.5922 118.872 78.8942 118.475 78.8942Z" fill="black"/>
<path d="M118.475 92.4059H82.55C82.153 92.4059 81.832 92.1039 81.832 91.7303C81.832 91.3567 82.153 91.0547 82.55 91.0547H118.475C118.872 91.0547 119.193 91.3567 119.193 91.7303C119.193 92.1039 118.872 92.4059 118.475 92.4059Z" fill="black"/>
<path d="M129.231 29.9878C129.222 29.9878 129.215 29.9838 129.206 29.9845C126.988 30.0554 125.938 32.1437 125.012 33.9861C124.046 35.911 123.298 37.1636 122.073 37.1257C120.717 37.0798 119.942 35.638 119.12 34.1118C118.177 32.3599 117.1 30.3723 114.839 30.4466C112.652 30.5168 111.599 32.3342 110.67 33.9375C109.682 35.6454 109.009 36.6839 107.712 36.6359C106.328 36.5886 105.593 35.4164 104.742 34.0598C103.794 32.5491 102.697 30.8506 100.48 30.9087C98.3308 30.9783 97.2747 32.52 96.3428 33.8814C95.3571 35.3205 94.6664 36.1974 93.3526 36.1454C91.9361 36.0974 91.2045 35.1252 90.358 33.999C89.4074 32.7335 88.3363 31.3012 86.1257 31.3708C84.0236 31.4384 82.9674 32.7011 82.0363 33.8152C81.1518 34.8719 80.4611 35.7083 79.0001 35.6556C78.6038 35.6407 78.2714 35.9333 78.257 36.3069C78.2419 36.6791 78.5521 36.9926 78.9484 37.0068C81.1144 37.0751 82.2115 35.79 83.1642 34.6509C84.0092 33.6402 84.7386 32.768 86.1745 32.7221C87.5573 32.6667 88.2056 33.4754 89.1863 34.7793C90.1175 36.0184 91.1743 37.4237 93.3009 37.496C95.5287 37.5662 96.6006 35.9995 97.5497 34.6131C98.3983 33.374 99.1306 32.3045 100.529 32.2593C101.816 32.214 102.517 33.1713 103.505 34.7462C104.436 36.2305 105.491 37.9121 107.66 37.9865C109.903 38.0594 110.987 36.2157 111.931 34.5847C112.749 33.174 113.52 31.841 114.888 31.7971C116.175 31.7688 116.847 32.8747 117.84 34.7226C118.767 36.4474 119.819 38.4013 122.022 38.4763C122.063 38.4776 122.103 38.4783 122.143 38.4783C124.343 38.4783 125.387 36.4008 126.311 34.5638C127.128 32.9355 127.902 31.4012 129.231 31.3391V29.9878Z" fill="black"/>
<path d="M57.436 111.999H86.154V84.9746H57.436V111.999Z" fill="#3ECC5F"/>
<path d="M100.513 95.11C100.356 95.11 100.206 95.135 100.054 95.1532C100.027 95.0519 100.001 94.9499 99.9708 94.8485C101.267 94.3391 102.179 93.1365 102.179 91.7319C102.179 89.8659 100.572 88.3538 98.5888 88.3538C97.7717 88.3538 97.0272 88.6214 96.4234 89.0538C96.3437 88.9774 96.264 88.9018 96.1829 88.8268C96.6331 88.2619 96.9088 87.5688 96.9088 86.8087C96.9088 84.9426 95.302 83.4306 93.319 83.4306C91.8365 83.4306 90.5643 84.2772 90.0172 85.4852C89.9109 85.4568 89.8039 85.4331 89.6977 85.4075C89.7171 85.2649 89.7436 85.1237 89.7436 84.9757C89.7436 83.1097 88.1369 81.5977 86.1539 81.5977C84.1709 81.5977 82.5642 83.1097 82.5642 84.9757C82.5642 85.1237 82.5907 85.2649 82.6101 85.4075C82.5038 85.4331 82.3969 85.4568 82.2906 85.4852C81.7435 84.2772 80.4713 83.4306 78.9888 83.4306C77.0058 83.4306 75.399 84.9426 75.399 86.8087C75.399 87.5688 75.6747 88.2619 76.1249 88.8268C73.4563 91.2806 71.7949 94.6999 71.7949 98.4881C71.7949 105.951 78.2234 112 86.1539 112C92.8588 112 98.4739 107.67 100.054 101.823C100.206 101.841 100.356 101.866 100.513 101.866C102.496 101.866 104.103 100.354 104.103 98.4881C104.103 96.622 102.496 95.11 100.513 95.11Z" fill="#44D860"/>
<path d="M57.436 71.4635H86.154V57.9512H57.436V71.4635Z" fill="#3ECC5F"/>
<path d="M93.3332 66.3959C94.3247 66.3959 95.1281 65.6398 95.1281 64.7068C95.1281 63.7738 94.3247 63.0178 93.3332 63.0178C93.255 63.0178 93.1796 63.0306 93.1042 63.0394C93.0898 62.9887 93.0776 62.938 93.0625 62.8874C93.7101 62.6327 94.166 62.0307 94.166 61.3287C94.166 60.3957 93.3626 59.6397 92.3712 59.6397C91.9626 59.6397 91.59 59.7728 91.2885 59.9897C91.249 59.9511 91.2088 59.9133 91.1679 59.8762C91.3933 59.5944 91.5312 59.2471 91.5312 58.8668C91.5312 57.9344 90.7278 57.1777 89.7363 57.1777C88.9946 57.1777 88.3585 57.6013 88.085 58.2053C87.4697 58.0439 86.8243 57.9506 86.1537 57.9506C82.1892 57.9506 78.9742 60.9761 78.9742 64.7068C78.9742 68.4376 82.1892 71.463 86.1537 71.463C86.8243 71.463 87.4697 71.3698 88.085 71.2083C88.3585 71.8123 88.9946 72.2359 89.7363 72.2359C90.7278 72.2359 91.5312 71.4792 91.5312 70.5468C91.5312 70.1665 91.3933 69.8192 91.1679 69.5375C91.2088 69.5003 91.249 69.4625 91.2885 69.424C91.59 69.6408 91.9626 69.7739 92.3712 69.7739C93.3626 69.7739 94.166 69.0179 94.166 68.0849C94.166 67.3829 93.7101 66.781 93.0625 66.5262C93.0776 66.4763 93.0898 66.4249 93.1042 66.3742C93.1796 66.383 93.255 66.3959 93.3332 66.3959Z" fill="#44D860"/>
<path d="M100.513 16.5692C100.398 16.5692 100.276 16.5557 100.161 16.5354C100.046 16.5152 99.9304 16.4814 99.8234 16.4409C99.7157 16.4003 99.6152 16.3463 99.514 16.2855C99.4206 16.2247 99.328 16.1503 99.2412 16.076C99.1629 15.995 99.0839 15.9139 99.0193 15.8193C98.9547 15.7247 98.8973 15.6301 98.8535 15.5288C98.8111 15.4274 98.7752 15.3193 98.7537 15.2112C98.7321 15.1031 98.7178 14.9883 98.7178 14.8802C98.7178 14.7721 98.7321 14.6572 98.7537 14.5491C98.7752 14.441 98.8111 14.3397 98.8535 14.2316C98.8973 14.1303 98.9547 14.0357 99.0193 13.9411C99.0839 13.8532 99.1629 13.7654 99.2412 13.6843C99.328 13.61 99.4206 13.5357 99.514 13.4749C99.6152 13.4141 99.7157 13.36 99.8234 13.3195C99.9304 13.279 100.046 13.2452 100.161 13.2249C100.391 13.1776 100.628 13.1776 100.864 13.2249C100.979 13.2452 101.094 13.279 101.202 13.3195C101.309 13.36 101.41 13.4141 101.511 13.4749C101.604 13.5357 101.697 13.61 101.783 13.6843C101.862 13.7654 101.941 13.8532 102.006 13.9411C102.071 14.0357 102.128 14.1303 102.171 14.2316C102.214 14.3397 102.25 14.441 102.272 14.5491C102.292 14.6572 102.308 14.7721 102.308 14.8802C102.308 15.3261 102.113 15.7652 101.783 16.076C101.697 16.1503 101.604 16.2247 101.511 16.2855C101.41 16.3463 101.309 16.4003 101.202 16.4409C101.094 16.4814 100.979 16.5152 100.864 16.5354C100.75 16.5557 100.628 16.5692 100.513 16.5692Z" fill="black"/>
<path d="M114.872 15.7235C114.398 15.7235 113.938 15.5411 113.6 15.2303C113.522 15.1492 113.443 15.0614 113.378 14.9736C113.314 14.879 113.256 14.7844 113.212 14.6831C113.17 14.5817 113.134 14.4736 113.113 14.3655C113.091 14.2574 113.077 14.1426 113.077 14.0345C113.077 13.5886 113.271 13.1562 113.6 12.8386C113.687 12.7643 113.78 12.69 113.873 12.6292C113.974 12.5684 114.075 12.5143 114.182 12.4738C114.289 12.4333 114.405 12.3995 114.52 12.3792C114.75 12.3319 114.994 12.3319 115.223 12.3792C115.338 12.3995 115.453 12.4333 115.561 12.4738C115.668 12.5143 115.769 12.5684 115.87 12.6292C115.963 12.69 116.056 12.7643 116.142 12.8386C116.472 13.1562 116.667 13.5886 116.667 14.0345C116.667 14.1426 116.651 14.2574 116.631 14.3655C116.609 14.4736 116.573 14.5817 116.53 14.6831C116.48 14.7844 116.43 14.879 116.365 14.9736C116.3 15.0614 116.221 15.1492 116.142 15.2303C116.056 15.3046 115.963 15.379 115.87 15.4398C115.769 15.5006 115.668 15.5546 115.561 15.5952C115.453 15.6357 115.338 15.6695 115.223 15.6897C115.109 15.71 114.987 15.7235 114.872 15.7235Z" fill="black"/>
<path d="M16.28 161V147H21.98C23.4733 147 24.78 147.3 25.9 147.9C27.0333 148.487 27.9133 149.307 28.54 150.36C29.1667 151.413 29.48 152.627 29.48 154C29.48 155.373 29.1667 156.587 28.54 157.64C27.9133 158.693 27.0333 159.52 25.9 160.12C24.78 160.707 23.4733 161 21.98 161H16.28ZM17.76 159.72H21.9C23.14 159.72 24.2133 159.48 25.12 159C26.04 158.507 26.7533 157.833 27.26 156.98C27.7667 156.113 28.02 155.12 28.02 154C28.02 152.867 27.7667 151.873 27.26 151.02C26.7533 150.167 26.04 149.5 25.12 149.02C24.2133 148.527 23.14 148.28 21.9 148.28H17.76V159.72ZM36.7834 161.1C35.7701 161.1 34.8568 160.873 34.0434 160.42C33.2434 159.953 32.6101 159.32 32.1434 158.52C31.6768 157.707 31.4434 156.78 31.4434 155.74C31.4434 154.687 31.6768 153.76 32.1434 152.96C32.6101 152.16 33.2434 151.533 34.0434 151.08C34.8434 150.627 35.7568 150.4 36.7834 150.4C37.8234 150.4 38.7434 150.627 39.5434 151.08C40.3568 151.533 40.9901 152.16 41.4434 152.96C41.9101 153.76 42.1434 154.687 42.1434 155.74C42.1434 156.78 41.9101 157.707 41.4434 158.52C40.9901 159.32 40.3568 159.953 39.5434 160.42C38.7301 160.873 37.8101 161.1 36.7834 161.1ZM36.7834 159.84C37.5434 159.84 38.2168 159.673 38.8034 159.34C39.3901 158.993 39.8501 158.513 40.1834 157.9C40.5301 157.273 40.7034 156.553 40.7034 155.74C40.7034 154.913 40.5301 154.193 40.1834 153.58C39.8501 152.967 39.3901 152.493 38.8034 152.16C38.2168 151.813 37.5501 151.64 36.8034 151.64C36.0568 151.64 35.3901 151.813 34.8034 152.16C34.2168 152.493 33.7501 152.967 33.4034 153.58C33.0568 154.193 32.8834 154.913 32.8834 155.74C32.8834 156.553 33.0568 157.273 33.4034 157.9C33.7501 158.513 34.2168 158.993 34.8034 159.34C35.3901 159.673 36.0501 159.84 36.7834 159.84ZM49.4025 161.1C48.3625 161.1 47.4292 160.873 46.6025 160.42C45.7892 159.953 45.1492 159.32 44.6825 158.52C44.2158 157.707 43.9825 156.78 43.9825 155.74C43.9825 154.687 44.2158 153.76 44.6825 152.96C45.1492 152.16 45.7892 151.533 46.6025 151.08C47.4292 150.627 48.3625 150.4 49.4025 150.4C50.2958 150.4 51.1025 150.573 51.8225 150.92C52.5425 151.267 53.1092 151.787 53.5225 152.48L52.4625 153.2C52.1025 152.667 51.6558 152.273 51.1225 152.02C50.5892 151.767 50.0092 151.64 49.3825 151.64C48.6358 151.64 47.9625 151.813 47.3625 152.16C46.7625 152.493 46.2892 152.967 45.9425 153.58C45.5958 154.193 45.4225 154.913 45.4225 155.74C45.4225 156.567 45.5958 157.287 45.9425 157.9C46.2892 158.513 46.7625 158.993 47.3625 159.34C47.9625 159.673 48.6358 159.84 49.3825 159.84C50.0092 159.84 50.5892 159.713 51.1225 159.46C51.6558 159.207 52.1025 158.82 52.4625 158.3L53.5225 159.02C53.1092 159.7 52.5425 160.22 51.8225 160.58C51.1025 160.927 50.2958 161.1 49.4025 161.1ZM60.652 161.1C59.7587 161.1 58.9787 160.933 58.312 160.6C57.6454 160.267 57.1254 159.767 56.752 159.1C56.392 158.433 56.212 157.6 56.212 156.6V150.5H57.632V156.44C57.632 157.56 57.9054 158.407 58.452 158.98C59.012 159.54 59.792 159.82 60.792 159.82C61.5254 159.82 62.1587 159.673 62.692 159.38C63.2387 159.073 63.652 158.633 63.932 158.06C64.2254 157.487 64.372 156.8 64.372 156V150.5H65.792V161H64.432V158.12L64.652 158.64C64.3187 159.413 63.7987 160.02 63.092 160.46C62.3987 160.887 61.5854 161.1 60.652 161.1ZM72.5695 161.1C71.7029 161.1 70.8829 160.98 70.1095 160.74C69.3362 160.487 68.7295 160.173 68.2895 159.8L68.9295 158.68C69.3562 159 69.9029 159.28 70.5695 159.52C71.2362 159.747 71.9362 159.86 72.6695 159.86C73.6695 159.86 74.3895 159.707 74.8295 159.4C75.2695 159.08 75.4895 158.66 75.4895 158.14C75.4895 157.753 75.3629 157.453 75.1095 157.24C74.8695 157.013 74.5495 156.847 74.1495 156.74C73.7495 156.62 73.3029 156.52 72.8095 156.44C72.3162 156.36 71.8229 156.267 71.3295 156.16C70.8495 156.053 70.4095 155.9 70.0095 155.7C69.6095 155.487 69.2829 155.2 69.0295 154.84C68.7895 154.48 68.6695 154 68.6695 153.4C68.6695 152.827 68.8295 152.313 69.1495 151.86C69.4695 151.407 69.9362 151.053 70.5495 150.8C71.1762 150.533 71.9362 150.4 72.8295 150.4C73.5095 150.4 74.1895 150.493 74.8695 150.68C75.5495 150.853 76.1095 151.087 76.5495 151.38L75.9295 152.52C75.4629 152.2 74.9629 151.973 74.4295 151.84C73.8962 151.693 73.3629 151.62 72.8295 151.62C71.8829 151.62 71.1829 151.787 70.7295 152.12C70.2895 152.44 70.0695 152.853 70.0695 153.36C70.0695 153.76 70.1895 154.073 70.4295 154.3C70.6829 154.527 71.0095 154.707 71.4095 154.84C71.8229 154.96 72.2695 155.06 72.7495 155.14C73.2429 155.22 73.7295 155.32 74.2095 155.44C74.7029 155.547 75.1495 155.7 75.5495 155.9C75.9629 156.087 76.2895 156.36 76.5295 156.72C76.7829 157.067 76.9095 157.527 76.9095 158.1C76.9095 158.713 76.7362 159.247 76.3895 159.7C76.0562 160.14 75.5629 160.487 74.9095 160.74C74.2695 160.98 73.4895 161.1 72.5695 161.1ZM86.0952 161V158.68L86.0352 158.3V154.42C86.0352 153.527 85.7818 152.84 85.2752 152.36C84.7818 151.88 84.0418 151.64 83.0552 151.64C82.3752 151.64 81.7285 151.753 81.1152 151.98C80.5018 152.207 79.9818 152.507 79.5552 152.88L78.9152 151.82C79.4485 151.367 80.0885 151.02 80.8352 150.78C81.5818 150.527 82.3685 150.4 83.1952 150.4C84.5552 150.4 85.6018 150.74 86.3352 151.42C87.0818 152.087 87.4552 153.107 87.4552 154.48V161H86.0952ZM82.4752 161.1C81.6885 161.1 81.0018 160.973 80.4152 160.72C79.8418 160.453 79.4018 160.093 79.0952 159.64C78.7885 159.173 78.6352 158.64 78.6352 158.04C78.6352 157.493 78.7618 157 79.0152 156.56C79.2818 156.107 79.7085 155.747 80.2952 155.48C80.8952 155.2 81.6952 155.06 82.6952 155.06H86.3152V156.12H82.7352C81.7218 156.12 81.0152 156.3 80.6152 156.66C80.2285 157.02 80.0352 157.467 80.0352 158C80.0352 158.6 80.2685 159.08 80.7352 159.44C81.2018 159.8 81.8552 159.98 82.6952 159.98C83.4952 159.98 84.1818 159.8 84.7552 159.44C85.3418 159.067 85.7685 158.533 86.0352 157.84L86.3552 158.82C86.0885 159.513 85.6218 160.067 84.9552 160.48C84.3018 160.893 83.4752 161.1 82.4752 161.1ZM95.652 161.1C94.7587 161.1 93.9787 160.933 93.312 160.6C92.6454 160.267 92.1254 159.767 91.752 159.1C91.392 158.433 91.212 157.6 91.212 156.6V150.5H92.632V156.44C92.632 157.56 92.9054 158.407 93.452 158.98C94.012 159.54 94.792 159.82 95.792 159.82C96.5254 159.82 97.1587 159.673 97.692 159.38C98.2387 159.073 98.652 158.633 98.932 158.06C99.2254 157.487 99.372 156.8 99.372 156V150.5H100.792V161H99.432V158.12L99.652 158.64C99.3187 159.413 98.7987 160.02 98.092 160.46C97.3987 160.887 96.5854 161.1 95.652 161.1ZM104.75 161V150.5H106.11V153.36L105.97 152.86C106.263 152.06 106.756 151.453 107.45 151.04C108.143 150.613 109.003 150.4 110.03 150.4V151.78C109.976 151.78 109.923 151.78 109.87 151.78C109.816 151.767 109.763 151.76 109.71 151.76C108.603 151.76 107.736 152.1 107.11 152.78C106.483 153.447 106.17 154.4 106.17 155.64V161H104.75ZM117.117 161.1C116.224 161.1 115.444 160.933 114.777 160.6C114.11 160.267 113.59 159.767 113.217 159.1C112.857 158.433 112.677 157.6 112.677 156.6V150.5H114.097V156.44C114.097 157.56 114.37 158.407 114.917 158.98C115.477 159.54 116.257 159.82 117.257 159.82C117.99 159.82 118.624 159.673 119.157 159.38C119.704 159.073 120.117 158.633 120.397 158.06C120.69 157.487 120.837 156.8 120.837 156V150.5H122.257V161H120.897V158.12L121.117 158.64C120.784 159.413 120.264 160.02 119.557 160.46C118.864 160.887 118.05 161.1 117.117 161.1ZM129.034 161.1C128.168 161.1 127.348 160.98 126.574 160.74C125.801 160.487 125.194 160.173 124.754 159.8L125.394 158.68C125.821 159 126.368 159.28 127.034 159.52C127.701 159.747 128.401 159.86 129.134 159.86C130.134 159.86 130.854 159.707 131.294 159.4C131.734 159.08 131.954 158.66 131.954 158.14C131.954 157.753 131.828 157.453 131.574 157.24C131.334 157.013 131.014 156.847 130.614 156.74C130.214 156.62 129.768 156.52 129.274 156.44C128.781 156.36 128.288 156.267 127.794 156.16C127.314 156.053 126.874 155.9 126.474 155.7C126.074 155.487 125.748 155.2 125.494 154.84C125.254 154.48 125.134 154 125.134 153.4C125.134 152.827 125.294 152.313 125.614 151.86C125.934 151.407 126.401 151.053 127.014 150.8C127.641 150.533 128.401 150.4 129.294 150.4C129.974 150.4 130.654 150.493 131.334 150.68C132.014 150.853 132.574 151.087 133.014 151.38L132.394 152.52C131.928 152.2 131.428 151.973 130.894 151.84C130.361 151.693 129.828 151.62 129.294 151.62C128.348 151.62 127.648 151.787 127.194 152.12C126.754 152.44 126.534 152.853 126.534 153.36C126.534 153.76 126.654 154.073 126.894 154.3C127.148 154.527 127.474 154.707 127.874 154.84C128.288 154.96 128.734 155.06 129.214 155.14C129.708 155.22 130.194 155.32 130.674 155.44C131.168 155.547 131.614 155.7 132.014 155.9C132.428 156.087 132.754 156.36 132.994 156.72C133.248 157.067 133.374 157.527 133.374 158.1C133.374 158.713 133.201 159.247 132.854 159.7C132.521 160.14 132.028 160.487 131.374 160.74C130.734 160.98 129.954 161.1 129.034 161.1Z" fill="white"/>
</svg>
