<svg width="100" height="159" viewBox="0 0 100 159" fill="none" xmlns="http://www.w3.org/2000/svg">
<path d="M44.3802 94.6822C42.8936 94.5139 41.3344 94.2967 40.9165 94.1989C40.3015 94.0605 39.6829 93.9369 39.0613 93.8282C38.3513 93.6976 37.647 93.541 36.9498 93.3589C33.7118 92.4782 33.4798 92.4063 31.0387 91.4589C28.7929 90.59 24.6551 88.5602 23.2396 87.6365C22.8521 87.3815 22.4897 87.1761 22.4342 87.1761C22.3795 87.1761 21.4734 86.5712 20.4204 85.8321C13.7258 81.1298 8.69981 75.4214 5.06818 68.3906C4.44325 67.1829 3.93315 66.1117 3.93315 66.0108C3.93315 65.9115 3.82067 65.6365 3.68318 65.4052C3.39962 64.924 2.99576 63.8876 2.67001 62.8164C2.52996 62.3613 2.36703 61.9127 2.18179 61.4724C2.02946 61.1313 1.90682 60.7162 1.90682 60.5486C1.90682 60.3804 1.75449 59.8333 1.56857 59.3291C1.38266 58.8287 1.23267 58.2379 1.23267 58.017C1.23267 57.7975 1.0866 57.0384 0.906149 56.3297C0.467135 54.5801 0 50.0483 0 47.5085C0 44.9716 0.467135 40.4398 0.906149 38.691C1.08582 37.9815 1.23267 37.2083 1.23267 36.971C1.23267 36.7331 1.34594 36.2668 1.48265 35.9332C1.62326 35.601 1.80292 35.0043 1.88573 34.6076C1.97165 34.211 2.16694 33.5275 2.32552 33.0842L2.78641 31.8046C3.12465 30.8461 3.43868 30.0351 3.58866 29.7192C3.67459 29.5428 4.00971 28.8222 4.33623 28.118C4.8643 26.98 5.9962 24.8338 6.65785 23.7107C6.89923 23.2992 6.99062 23.1628 8.29673 21.2257C10.366 18.1506 13.9023 14.3246 17.1942 11.5972C18.3542 10.6356 22.2295 7.84376 22.4037 7.84376C22.4522 7.84376 22.8178 7.63544 23.2185 7.38042C24.2707 6.71173 25.3026 6.14386 26.6478 5.50409C27.1307 5.27745 27.6088 5.04191 28.082 4.79759C28.3046 4.67601 28.7226 4.49364 30.8684 3.58179C31.341 3.38163 31.8503 3.19926 33.3181 2.7122C33.6415 2.60544 34.2915 2.37933 34.7555 2.21401C35.2226 2.04944 35.7718 1.91303 35.9764 1.91303C36.178 1.91303 36.7084 1.77959 37.1544 1.61501C37.5997 1.44969 38.4082 1.26139 38.9542 1.19764C39.4979 1.13685 40.2205 0.992285 40.5595 0.87886C40.8954 0.769141 41.8172 0.626804 42.6069 0.56379C43.6363 0.475535 44.6628 0.360584 45.6855 0.219066C47.7853 -0.0730221 52.3504 -0.0730221 54.4283 0.219066C55.4097 0.352726 56.3946 0.462727 57.3819 0.548963C58.1263 0.607529 59.0754 0.755056 59.4933 0.876636C59.9113 0.99525 60.6346 1.14352 61.0986 1.19764C61.5626 1.2562 62.3438 1.43857 62.8344 1.60612C63.3265 1.77662 63.8843 1.91303 64.0764 1.91303C64.2686 1.91303 64.6654 2.01459 64.9552 2.1421C65.2482 2.26665 65.8676 2.47497 66.3348 2.60544C66.7988 2.73888 67.5948 3.00206 68.108 3.19629C68.6173 3.38978 69.3008 3.6448 69.6274 3.76045C70.2289 3.97544 74.6737 6.08604 75.2783 6.44559C80.1848 9.34942 82.7087 11.2465 86.1021 14.5737C90.1938 18.5873 92.9099 22.4096 95.6744 28.0364C95.8697 28.4338 96.1681 29.0216 96.3392 29.3397C96.5072 29.6614 96.6478 30.038 96.6478 30.1774C96.6478 30.3183 96.7884 30.7408 96.9618 31.1182C97.4321 32.1434 97.8344 33.3103 98.0242 34.2021C98.1179 34.6395 98.2921 35.1807 98.4109 35.4038C98.5304 35.6263 98.6702 36.1919 98.7257 36.6552C98.7803 37.1178 98.942 37.877 99.0795 38.3373C99.8763 40.955 100.272 48.6672 99.7904 52.0781C99.6474 53.0915 99.4857 54.3169 99.4311 54.8003C99.3389 55.6284 98.878 57.7686 98.4843 59.2076L98.0781 60.731C97.3125 63.6645 95.4206 67.8434 93.1107 71.7095C92.1952 73.2441 89.126 77.3941 88.5463 77.8805C88.494 77.9235 88.2346 78.2141 87.9722 78.5202C87.7097 78.8301 86.8676 79.696 86.1052 80.4433C82.7454 83.7356 80.0356 85.7713 75.2783 88.575C74.7143 88.9079 69.9297 91.126 69.0352 91.4707C68.5712 91.6472 67.7963 91.9452 67.3143 92.1305C66.8355 92.3136 66.3012 92.4671 66.1332 92.47C65.9653 92.4723 65.5231 92.6146 65.1505 92.7851C64.7787 92.9556 64.3053 93.098 64.0952 93.1009C63.8874 93.1039 63.2804 93.2433 62.7461 93.4108C62.2126 93.5813 61.4705 93.7644 61.0978 93.8186C60.726 93.8741 59.93 94.0246 59.3254 94.1522C58.7215 94.2797 56.896 94.5287 55.2735 94.7052C51.6542 95.1058 47.9976 95.0981 44.3802 94.6822ZM48.054 85.4155C48.2883 85.242 48.5297 84.8965 48.5938 84.6541C48.7344 84.1181 71.4303 40.9372 71.8576 40.396C72.2177 39.9386 72.2513 39.2062 71.9216 38.9482C71.7482 38.8096 69.575 38.7658 63.7741 38.7747C59.423 38.7836 55.7649 38.7866 55.6453 38.7836C55.4688 38.7777 55.4321 36.0184 55.45 24.2C55.4625 16.1809 55.4227 9.54662 55.3618 9.45469C55.3008 9.36128 55.0626 9.28641 54.8306 9.28641C54.5041 9.28641 54.3517 9.41985 54.151 9.88541C53.7721 10.7513 52.7253 12.7173 47.6298 22.1064C46.5714 24.0549 45.5155 26.0046 44.4622 27.9556C43.5592 29.6325 42.1343 32.265 41.3008 33.8048C39.0573 37.9439 36.8185 42.0852 34.5844 46.2289C30.7309 53.3725 30.2646 54.2243 30.099 54.4126C29.7787 54.7803 29.6045 55.6284 29.7849 55.9471C29.949 56.2392 30.2763 56.2511 38.4113 56.2392C43.0616 56.234 46.8971 56.257 46.9369 56.2911C47.044 56.3957 47.0041 83.9506 46.894 84.6074C46.8213 85.0388 46.8698 85.2672 47.0775 85.4644C47.4369 85.8061 47.5353 85.8032 48.054 85.4155Z" fill="#049688"/>
<path d="M16.0121 137.78H23.4121V139.06H16.0121V137.78ZM16.1721 145H14.6921V131H24.2921V132.28H16.1721V145ZM33.1987 145V142.68L33.1387 142.3V138.42C33.1387 137.527 32.8853 136.84 32.3787 136.36C31.8853 135.88 31.1453 135.64 30.1587 135.64C29.4787 135.64 28.832 135.753 28.2187 135.98C27.6053 136.207 27.0853 136.507 26.6587 136.88L26.0187 135.82C26.552 135.367 27.192 135.02 27.9387 134.78C28.6853 134.527 29.472 134.4 30.2987 134.4C31.6587 134.4 32.7053 134.74 33.4387 135.42C34.1853 136.087 34.5587 137.107 34.5587 138.48V145H33.1987ZM29.5787 145.1C28.792 145.1 28.1053 144.973 27.5187 144.72C26.9453 144.453 26.5053 144.093 26.1987 143.64C25.892 143.173 25.7387 142.64 25.7387 142.04C25.7387 141.493 25.8653 141 26.1187 140.56C26.3853 140.107 26.812 139.747 27.3987 139.48C27.9987 139.2 28.7987 139.06 29.7987 139.06H33.4187V140.12H29.8387C28.8253 140.12 28.1187 140.3 27.7187 140.66C27.332 141.02 27.1387 141.467 27.1387 142C27.1387 142.6 27.372 143.08 27.8387 143.44C28.3053 143.8 28.9587 143.98 29.7987 143.98C30.5987 143.98 31.2853 143.8 31.8587 143.44C32.4453 143.067 32.872 142.533 33.1387 141.84L33.4587 142.82C33.192 143.513 32.7253 144.067 32.0587 144.48C31.4053 144.893 30.5787 145.1 29.5787 145.1ZM41.2355 145.1C40.3689 145.1 39.5489 144.98 38.7755 144.74C38.0022 144.487 37.3955 144.173 36.9555 143.8L37.5955 142.68C38.0222 143 38.5689 143.28 39.2355 143.52C39.9022 143.747 40.6022 143.86 41.3355 143.86C42.3355 143.86 43.0555 143.707 43.4955 143.4C43.9355 143.08 44.1555 142.66 44.1555 142.14C44.1555 141.753 44.0289 141.453 43.7755 141.24C43.5355 141.013 43.2155 140.847 42.8155 140.74C42.4155 140.62 41.9689 140.52 41.4755 140.44C40.9822 140.36 40.4889 140.267 39.9955 140.16C39.5155 140.053 39.0755 139.9 38.6755 139.7C38.2755 139.487 37.9489 139.2 37.6955 138.84C37.4555 138.48 37.3355 138 37.3355 137.4C37.3355 136.827 37.4955 136.313 37.8155 135.86C38.1355 135.407 38.6022 135.053 39.2155 134.8C39.8422 134.533 40.6022 134.4 41.4955 134.4C42.1755 134.4 42.8555 134.493 43.5355 134.68C44.2155 134.853 44.7755 135.087 45.2155 135.38L44.5955 136.52C44.1289 136.2 43.6289 135.973 43.0955 135.84C42.5622 135.693 42.0289 135.62 41.4955 135.62C40.5489 135.62 39.8489 135.787 39.3955 136.12C38.9555 136.44 38.7355 136.853 38.7355 137.36C38.7355 137.76 38.8555 138.073 39.0955 138.3C39.3489 138.527 39.6755 138.707 40.0755 138.84C40.4889 138.96 40.9355 139.06 41.4155 139.14C41.9089 139.22 42.3955 139.32 42.8755 139.44C43.3689 139.547 43.8155 139.7 44.2155 139.9C44.6289 140.087 44.9555 140.36 45.1955 140.72C45.4489 141.067 45.5755 141.527 45.5755 142.1C45.5755 142.713 45.4022 143.247 45.0555 143.7C44.7222 144.14 44.2289 144.487 43.5755 144.74C42.9355 144.98 42.1555 145.1 41.2355 145.1ZM51.5012 145.1C50.5145 145.1 49.7545 144.833 49.2212 144.3C48.6878 143.767 48.4212 143.013 48.4212 142.04V132.18H49.8412V141.96C49.8412 142.573 49.9945 143.047 50.3012 143.38C50.6212 143.713 51.0745 143.88 51.6612 143.88C52.2878 143.88 52.8078 143.7 53.2212 143.34L53.7212 144.36C53.4412 144.613 53.1012 144.8 52.7012 144.92C52.3145 145.04 51.9145 145.1 51.5012 145.1ZM46.5412 135.68V134.5H53.0412V135.68H46.5412ZM54.3662 145L60.7662 131H62.2262L68.6262 145H67.0662L61.1862 131.86H61.7862L55.9062 145H54.3662ZM56.8862 141.26L57.3262 140.06H65.4662L65.9062 141.26H56.8862ZM76.0621 145.1C75.1554 145.1 74.3354 144.893 73.6021 144.48C72.8688 144.053 72.2821 143.447 71.8421 142.66C71.4154 141.86 71.2021 140.887 71.2021 139.74C71.2021 138.593 71.4154 137.627 71.8421 136.84C72.2688 136.04 72.8488 135.433 73.5821 135.02C74.3154 134.607 75.1421 134.4 76.0621 134.4C77.0621 134.4 77.9554 134.627 78.7421 135.08C79.5421 135.52 80.1688 136.147 80.6221 136.96C81.0754 137.76 81.3021 138.687 81.3021 139.74C81.3021 140.807 81.0754 141.74 80.6221 142.54C80.1688 143.34 79.5421 143.967 78.7421 144.42C77.9554 144.873 77.0621 145.1 76.0621 145.1ZM70.6421 148.88V134.5H72.0021V137.66L71.8621 139.76L72.0621 141.88V148.88H70.6421ZM75.9621 143.84C76.7088 143.84 77.3754 143.673 77.9621 143.34C78.5488 142.993 79.0154 142.513 79.3621 141.9C79.7088 141.273 79.8821 140.553 79.8821 139.74C79.8821 138.927 79.7088 138.213 79.3621 137.6C79.0154 136.987 78.5488 136.507 77.9621 136.16C77.3754 135.813 76.7088 135.64 75.9621 135.64C75.2154 135.64 74.5421 135.813 73.9421 136.16C73.3554 136.507 72.8888 136.987 72.5421 137.6C72.2088 138.213 72.0421 138.927 72.0421 139.74C72.0421 140.553 72.2088 141.273 72.5421 141.9C72.8888 142.513 73.3554 142.993 73.9421 143.34C74.5421 143.673 75.2154 143.84 75.9621 143.84ZM84.1968 145V134.5H85.6168V145H84.1968ZM84.9168 132.18C84.6235 132.18 84.3768 132.08 84.1768 131.88C83.9768 131.68 83.8768 131.44 83.8768 131.16C83.8768 130.88 83.9768 130.647 84.1768 130.46C84.3768 130.26 84.6235 130.16 84.9168 130.16C85.2101 130.16 85.4568 130.253 85.6568 130.44C85.8568 130.627 85.9568 130.86 85.9568 131.14C85.9568 131.433 85.8568 131.68 85.6568 131.88C85.4701 132.08 85.2235 132.18 84.9168 132.18Z" fill="white"/>
</svg>
