<svg width="202" height="80" viewBox="0 0 202 80" fill="none" xmlns="http://www.w3.org/2000/svg">
<g clip-path="url(#clip0_362_427)">
<path fill-rule="evenodd" clip-rule="evenodd" d="M89.2901 39.4633C90.2293 39.1013 91.035 38.4618 91.5994 37.6305C92.1639 36.7992 92.46 35.8159 92.4483 34.8121C92.4483 30.6261 89.4696 28.551 85.3783 28.551H74.6477V51.3059H86.3114C89.9002 51.3059 93.4173 48.8014 93.4173 44.9731C93.4173 40.4293 89.2901 39.4991 89.2901 39.4633ZM80.2463 33.2737H84.4093C84.6966 33.2564 84.9843 33.3001 85.2534 33.4019C85.5225 33.5036 85.7669 33.6612 85.9704 33.8641C86.1739 34.067 86.3319 34.3106 86.434 34.5789C86.5361 34.8471 86.5799 35.134 86.5626 35.4204C86.557 35.7066 86.4934 35.9887 86.3755 36.2498C86.2576 36.5108 86.0879 36.7454 85.8766 36.9393C85.6654 37.1332 85.4169 37.2824 85.1462 37.378C84.8755 37.4736 84.5882 37.5136 84.3017 37.4955H80.2463V33.2737ZM84.4452 46.5474H80.2463V42.0751H84.3375C86.3832 42.0751 87.3522 42.9696 87.3522 44.2934C87.3522 45.9392 86.132 46.5474 84.4452 46.5474Z" fill="white"/>
<path fill-rule="evenodd" clip-rule="evenodd" d="M105.763 27.9785C99.1594 27.9785 95.2834 33.2379 95.2834 39.8926C95.2834 46.5832 99.1594 51.8068 105.763 51.8068C112.402 51.8068 116.242 46.5832 116.242 39.8926C116.242 33.2379 112.402 27.9785 105.763 27.9785ZM105.763 46.3685C102.533 46.3685 100.918 43.4705 100.918 39.8926C100.918 36.3148 102.533 33.4526 105.763 33.4526C108.993 33.4526 110.644 36.3506 110.644 39.8926C110.644 43.5062 108.993 46.3685 105.763 46.3685Z" fill="white"/>
<path fill-rule="evenodd" clip-rule="evenodd" d="M128.408 37.4955L127.619 37.3166C125.681 36.9231 124.138 36.4222 124.138 35.0268C124.138 33.5241 125.609 32.9159 126.901 32.9159C127.782 32.9297 128.651 33.1243 129.454 33.4874C130.257 33.8506 130.976 34.3746 131.566 35.0268L135.119 31.5206C133.504 29.6959 130.885 27.9427 126.793 27.9427C121.984 27.9427 118.324 30.6261 118.324 35.0984C118.324 39.1771 121.267 41.1807 124.855 41.932L125.645 42.1109C128.624 42.7191 129.736 43.1843 129.736 44.6154C129.736 45.9749 128.516 46.8694 126.65 46.8694C124.425 46.8694 122.415 45.9034 120.872 43.9356L117.247 47.5134C119.257 49.9105 121.805 51.771 126.722 51.771C130.992 51.771 135.55 49.3381 135.55 44.3649C135.622 39.1771 131.674 38.1753 128.408 37.4955Z" fill="white"/>
<path fill-rule="evenodd" clip-rule="evenodd" d="M148.326 46.3685C145.814 46.3685 143.194 44.2934 143.194 39.7495C143.194 35.7066 145.635 33.4526 148.183 33.4526C150.192 33.4526 151.377 34.3828 152.31 35.9928L156.904 32.9517C154.607 29.4812 151.879 28.0143 148.111 28.0143C141.22 28.0143 137.488 33.3452 137.488 39.7853C137.488 46.5474 141.615 51.8425 148.039 51.8425C152.561 51.8425 154.714 50.2683 157.047 46.9052L152.418 43.7925C151.484 45.2951 150.48 46.3685 148.326 46.3685Z" fill="white"/>
<path fill-rule="evenodd" clip-rule="evenodd" d="M172.228 28.551V36.9231H165.301V28.551H159.308V51.3059H165.301V42.3256H172.228V51.3059H178.221V28.551H172.228Z" fill="white"/>
<path d="M40.1231 22.7549C36.7019 22.7549 33.3574 23.7664 30.5128 25.6613C27.6681 27.5562 25.451 30.2495 24.1417 33.4006C22.8324 36.5517 22.4899 40.0192 23.1573 43.3644C23.8248 46.7096 25.4723 49.7824 27.8915 52.1941C30.3107 54.6059 33.3929 56.2483 36.7484 56.9137C40.1039 57.5792 43.582 57.2376 46.7428 55.9324C49.9037 54.6272 52.6053 52.4168 54.506 49.5809C56.4068 46.7449 57.4213 43.4108 57.4213 40C57.4188 35.4271 55.5955 31.0422 52.352 27.8086C49.1085 24.5751 44.7101 22.7574 40.1231 22.7549ZM40.1231 55.6351C37.0213 55.6351 33.9891 54.7181 31.41 53.0001C28.8309 51.2821 26.8208 48.8402 25.6337 45.9833C24.4467 43.1264 24.1361 39.9827 24.7413 36.9498C25.3464 33.9169 26.8401 31.131 29.0334 28.9444C31.2268 26.7578 34.0212 25.2687 37.0635 24.6654C40.1057 24.0621 43.2591 24.3717 46.1248 25.5551C48.9905 26.7385 51.4399 28.7425 53.1632 31.3137C54.8865 33.8848 55.8063 36.9077 55.8063 40C55.802 44.1454 54.1483 48.1198 51.2081 51.051C48.2678 53.9822 44.2812 55.6308 40.1231 55.6351Z" fill="white"/>
<path d="M47.2649 29.2308H46.0806V35.1342H34.2015V29.2308H32.9813C31.1944 30.4064 29.7278 32.0055 28.7132 33.885C27.6985 35.7645 27.1674 37.8656 27.1674 40C27.1674 42.1344 27.6985 44.2355 28.7132 46.115C29.7278 47.9945 31.1944 49.5936 32.9813 50.7692H34.2015V44.8658H46.0806V50.7692H47.2649C49.0519 49.5936 50.5184 47.9945 51.5331 46.115C52.5477 44.2355 53.0789 42.1344 53.0789 40C53.0789 37.8656 52.5477 35.7645 51.5331 33.885C50.5184 32.0055 49.0519 30.4064 47.2649 29.2308ZM32.5507 48.4437C31.3544 47.3839 30.3969 46.0835 29.7413 44.6281C29.0856 43.1728 28.7466 41.5954 28.7466 40C28.7466 38.4046 29.0856 36.8273 29.7413 35.3719C30.3969 33.9165 31.3544 32.6161 32.5507 31.5564V48.4437ZM46.0806 43.22H34.2015V36.7442H46.0806V43.22ZM47.6955 48.4079V44.8301V35.1342V31.5564C48.8814 32.6186 49.8298 33.9178 50.479 35.3695C51.1282 36.8211 51.4638 38.3927 51.4638 39.9821C51.4638 41.5715 51.1282 43.1431 50.479 44.5948C49.8298 46.0464 48.8814 47.3456 47.6955 48.4079Z" fill="white"/>
</g>
<defs>
<clipPath id="clip0_362_427">
<rect width="201.046" height="80" fill="white"/>
</clipPath>
</defs>
</svg>
