<svg width="128" height="161" viewBox="0 0 128 161" fill="none" xmlns="http://www.w3.org/2000/svg">
<path d="M64 0C46.933 0 36.27 8.53 32 25.597C38.398 17.066 45.867 13.867 54.398 16C59.269 17.214 62.75 20.746 66.605 24.66C72.879 31.027 80.141 38.398 96 38.398C113.066 38.398 123.73 29.867 128 12.796C121.601 21.332 114.133 24.531 105.601 22.398C100.731 21.183 97.254 17.652 93.394 13.738C87.124 7.371 79.864 0 64 0ZM32 38.398C14.934 38.398 4.27 46.929 0 64C6.398 55.464 13.866 52.265 22.398 54.398C27.269 55.613 30.75 59.144 34.605 63.058C40.879 69.425 48.141 76.796 64 76.796C81.066 76.796 91.73 68.266 96 51.199C89.601 59.73 82.133 62.929 73.601 60.796C68.731 59.582 65.254 56.05 61.394 52.136C55.124 45.769 47.864 38.398 32 38.398Z" fill="#38BDF8"/>
<path d="M30.2715 147V134.28H25.3515V133H36.6715V134.28H31.7515V147H30.2715ZM44.7299 147V144.68L44.6699 144.3V140.42C44.6699 139.527 44.4166 138.84 43.9099 138.36C43.4166 137.88 42.6766 137.64 41.6899 137.64C41.0099 137.64 40.3633 137.753 39.7499 137.98C39.1366 138.207 38.6166 138.507 38.1899 138.88L37.5499 137.82C38.0833 137.367 38.7233 137.02 39.4699 136.78C40.2166 136.527 41.0033 136.4 41.8299 136.4C43.1899 136.4 44.2366 136.74 44.9699 137.42C45.7166 138.087 46.0899 139.107 46.0899 140.48V147H44.7299ZM41.1099 147.1C40.3233 147.1 39.6366 146.973 39.0499 146.72C38.4766 146.453 38.0366 146.093 37.7299 145.64C37.4233 145.173 37.2699 144.64 37.2699 144.04C37.2699 143.493 37.3966 143 37.6499 142.56C37.9166 142.107 38.3433 141.747 38.9299 141.48C39.5299 141.2 40.3299 141.06 41.3299 141.06H44.9499V142.12H41.3699C40.3566 142.12 39.6499 142.3 39.2499 142.66C38.8633 143.02 38.6699 143.467 38.6699 144C38.6699 144.6 38.9033 145.08 39.3699 145.44C39.8366 145.8 40.4899 145.98 41.3299 145.98C42.1299 145.98 42.8166 145.8 43.3899 145.44C43.9766 145.067 44.4033 144.533 44.6699 143.84L44.9899 144.82C44.7233 145.513 44.2566 146.067 43.5899 146.48C42.9366 146.893 42.1099 147.1 41.1099 147.1ZM49.9468 147V136.5H51.3668V147H49.9468ZM50.6668 134.18C50.3735 134.18 50.1268 134.08 49.9268 133.88C49.7268 133.68 49.6268 133.44 49.6268 133.16C49.6268 132.88 49.7268 132.647 49.9268 132.46C50.1268 132.26 50.3735 132.16 50.6668 132.16C50.9601 132.16 51.2068 132.253 51.4068 132.44C51.6068 132.627 51.7068 132.86 51.7068 133.14C51.7068 133.433 51.6068 133.68 51.4068 133.88C51.2201 134.08 50.9735 134.18 50.6668 134.18ZM55.3179 147V132.16H56.7379V147H55.3179ZM62.829 147L58.869 136.5H60.229L63.829 146.24H63.209L66.909 136.5H68.129L71.789 146.24H71.169L74.829 136.5H76.129L72.149 147H70.809L67.289 137.84H67.709L64.169 147H62.829ZM78.2671 147V136.5H79.6871V147H78.2671ZM78.9871 134.18C78.6938 134.18 78.4471 134.08 78.2471 133.88C78.0471 133.68 77.9471 133.44 77.9471 133.16C77.9471 132.88 78.0471 132.647 78.2471 132.46C78.4471 132.26 78.6938 132.16 78.9871 132.16C79.2804 132.16 79.5271 132.253 79.7271 132.44C79.9271 132.627 80.0271 132.86 80.0271 133.14C80.0271 133.433 79.9271 133.68 79.7271 133.88C79.5404 134.08 79.2938 134.18 78.9871 134.18ZM88.9982 136.4C89.8515 136.4 90.5982 136.567 91.2382 136.9C91.8915 137.22 92.3982 137.713 92.7582 138.38C93.1315 139.047 93.3182 139.887 93.3182 140.9V147H91.8982V141.04C91.8982 139.933 91.6182 139.1 91.0582 138.54C90.5115 137.967 89.7382 137.68 88.7382 137.68C87.9915 137.68 87.3382 137.833 86.7782 138.14C86.2315 138.433 85.8049 138.867 85.4982 139.44C85.2049 140 85.0582 140.68 85.0582 141.48V147H83.6382V136.5H84.9982V139.38L84.7782 138.84C85.1115 138.08 85.6449 137.487 86.3782 137.06C87.1115 136.62 87.9849 136.4 88.9982 136.4ZM101.334 147.1C100.334 147.1 99.4338 146.873 98.6338 146.42C97.8472 145.967 97.2272 145.34 96.7738 144.54C96.3205 143.727 96.0938 142.793 96.0938 141.74C96.0938 140.673 96.3205 139.74 96.7738 138.94C97.2272 138.14 97.8472 137.52 98.6338 137.08C99.4338 136.627 100.334 136.4 101.334 136.4C102.254 136.4 103.074 136.607 103.794 137.02C104.527 137.433 105.107 138.04 105.534 138.84C105.974 139.627 106.194 140.593 106.194 141.74C106.194 142.873 105.98 143.84 105.554 144.64C105.127 145.44 104.547 146.053 103.814 146.48C103.094 146.893 102.267 147.1 101.334 147.1ZM101.434 145.84C102.18 145.84 102.847 145.673 103.434 145.34C104.034 144.993 104.5 144.513 104.834 143.9C105.18 143.273 105.354 142.553 105.354 141.74C105.354 140.913 105.18 140.193 104.834 139.58C104.5 138.967 104.034 138.493 103.434 138.16C102.847 137.813 102.18 137.64 101.434 137.64C100.7 137.64 100.04 137.813 99.4538 138.16C98.8672 138.493 98.4005 138.967 98.0538 139.58C97.7072 140.193 97.5338 140.913 97.5338 141.74C97.5338 142.553 97.7072 143.273 98.0538 143.9C98.4005 144.513 98.8672 144.993 99.4538 145.34C100.04 145.673 100.7 145.84 101.434 145.84ZM105.394 147V143.84L105.534 141.72L105.334 139.6V132.16H106.754V147H105.394Z" fill="white"/>
</svg>
