<svg width="612" height="339" viewBox="0 0 612 339" fill="none" xmlns="http://www.w3.org/2000/svg">
<rect width="586.566" height="338.23" fill="#CF317F" fill-opacity="0.3"/>
<path d="M100.146 225.901H107.922V259.501H100.146V225.901ZM84.8821 259.501H77.1061V225.901H84.8821V259.501ZM100.722 245.725H84.3061V239.149H100.722V245.725ZM115.872 259.501V225.901H123.648V259.501H115.872ZM142.662 260.077C139.974 260.077 137.398 259.725 134.934 259.021C132.47 258.285 130.486 257.341 128.982 256.189L131.622 250.333C133.062 251.357 134.758 252.205 136.71 252.877C138.694 253.517 140.694 253.837 142.71 253.837C144.246 253.837 145.478 253.693 146.406 253.405C147.366 253.085 148.07 252.653 148.518 252.109C148.966 251.565 149.19 250.941 149.19 250.237C149.19 249.341 148.838 248.637 148.134 248.125C147.43 247.581 146.502 247.149 145.35 246.829C144.198 246.477 142.918 246.157 141.51 245.869C140.134 245.549 138.742 245.165 137.334 244.717C135.958 244.269 134.694 243.693 133.542 242.989C132.39 242.285 131.446 241.357 130.71 240.205C130.006 239.053 129.654 237.581 129.654 235.789C129.654 233.869 130.166 232.125 131.19 230.557C132.246 228.957 133.814 227.693 135.894 226.765C138.006 225.805 140.646 225.325 143.814 225.325C145.926 225.325 148.006 225.581 150.054 226.093C152.102 226.573 153.91 227.309 155.478 228.301L153.078 234.205C151.51 233.309 149.942 232.653 148.374 232.237C146.806 231.789 145.27 231.565 143.766 231.565C142.262 231.565 141.03 231.741 140.07 232.093C139.11 232.445 138.422 232.909 138.006 233.485C137.59 234.029 137.382 234.669 137.382 235.405C137.382 236.269 137.734 236.973 138.438 237.517C139.142 238.029 140.07 238.445 141.222 238.765C142.374 239.085 143.638 239.405 145.014 239.725C146.422 240.045 147.814 240.413 149.19 240.829C150.598 241.245 151.878 241.805 153.03 242.509C154.182 243.213 155.11 244.141 155.814 245.293C156.55 246.445 156.918 247.901 156.918 249.661C156.918 251.549 156.39 253.277 155.334 254.845C154.278 256.413 152.694 257.677 150.582 258.637C148.502 259.597 145.862 260.077 142.662 260.077ZM168.722 259.501V232.237H157.97V225.901H187.25V232.237H176.498V259.501H168.722ZM207.285 260.077C204.629 260.077 202.165 259.645 199.893 258.781C197.653 257.917 195.701 256.701 194.037 255.133C192.405 253.565 191.125 251.725 190.197 249.613C189.301 247.501 188.853 245.197 188.853 242.701C188.853 240.205 189.301 237.901 190.197 235.789C191.125 233.677 192.421 231.837 194.085 230.269C195.749 228.701 197.701 227.485 199.941 226.621C202.181 225.757 204.613 225.325 207.237 225.325C209.893 225.325 212.325 225.757 214.533 226.621C216.773 227.485 218.709 228.701 220.341 230.269C222.005 231.837 223.301 233.677 224.229 235.789C225.157 237.869 225.621 240.173 225.621 242.701C225.621 245.197 225.157 247.517 224.229 249.661C223.301 251.773 222.005 253.613 220.341 255.181C218.709 256.717 216.773 257.917 214.533 258.781C212.325 259.645 209.909 260.077 207.285 260.077ZM207.237 253.453C208.741 253.453 210.117 253.197 211.365 252.685C212.645 252.173 213.765 251.437 214.725 250.477C215.685 249.517 216.421 248.381 216.933 247.069C217.477 245.757 217.749 244.301 217.749 242.701C217.749 241.101 217.477 239.645 216.933 238.333C216.421 237.021 215.685 235.885 214.725 234.925C213.797 233.965 212.693 233.229 211.413 232.717C210.133 232.205 208.741 231.949 207.237 231.949C205.733 231.949 204.341 232.205 203.061 232.717C201.813 233.229 200.709 233.965 199.749 234.925C198.789 235.885 198.037 237.021 197.493 238.333C196.981 239.645 196.725 241.101 196.725 242.701C196.725 244.269 196.981 245.725 197.493 247.069C198.037 248.381 198.773 249.517 199.701 250.477C200.661 251.437 201.781 252.173 203.061 252.685C204.341 253.197 205.733 253.453 207.237 253.453ZM202.869 223.165L209.349 216.253H217.413L208.725 223.165H202.869ZM231.465 259.501V225.901H246.009C249.017 225.901 251.609 226.397 253.785 227.389C255.961 228.349 257.641 229.741 258.825 231.565C260.009 233.389 260.601 235.565 260.601 238.093C260.601 240.589 260.009 242.749 258.825 244.573C257.641 246.365 255.961 247.741 253.785 248.701C251.609 249.661 249.017 250.141 246.009 250.141H235.785L239.241 246.733V259.501H231.465ZM252.825 259.501L244.425 247.309H252.729L261.225 259.501H252.825ZM239.241 247.597L235.785 243.949H245.577C247.977 243.949 249.769 243.437 250.953 242.413C252.137 241.357 252.729 239.917 252.729 238.093C252.729 236.237 252.137 234.797 250.953 233.773C249.769 232.749 247.977 232.237 245.577 232.237H235.785L239.241 228.541V247.597ZM266.762 259.501V225.901H274.538V259.501H266.762ZM298.592 260.077C296 260.077 293.584 259.661 291.344 258.829C289.136 257.965 287.216 256.749 285.584 255.181C283.952 253.613 282.672 251.773 281.744 249.661C280.848 247.549 280.4 245.229 280.4 242.701C280.4 240.173 280.848 237.853 281.744 235.741C282.672 233.629 283.952 231.789 285.584 230.221C287.248 228.653 289.184 227.453 291.392 226.621C293.6 225.757 296.016 225.325 298.64 225.325C301.552 225.325 304.176 225.837 306.512 226.861C308.88 227.853 310.864 229.325 312.464 231.277L307.472 235.885C306.32 234.573 305.04 233.597 303.632 232.957C302.224 232.285 300.688 231.949 299.024 231.949C297.456 231.949 296.016 232.205 294.704 232.717C293.392 233.229 292.256 233.965 291.296 234.925C290.336 235.885 289.584 237.021 289.04 238.333C288.528 239.645 288.272 241.101 288.272 242.701C288.272 244.301 288.528 245.757 289.04 247.069C289.584 248.381 290.336 249.517 291.296 250.477C292.256 251.437 293.392 252.173 294.704 252.685C296.016 253.197 297.456 253.453 299.024 253.453C300.688 253.453 302.224 253.133 303.632 252.493C305.04 251.821 306.32 250.813 307.472 249.469L312.464 254.077C310.864 256.029 308.88 257.517 306.512 258.541C304.176 259.565 301.536 260.077 298.592 260.077ZM333.332 260.077C330.676 260.077 328.212 259.645 325.94 258.781C323.7 257.917 321.748 256.701 320.084 255.133C318.452 253.565 317.172 251.725 316.244 249.613C315.348 247.501 314.9 245.197 314.9 242.701C314.9 240.205 315.348 237.901 316.244 235.789C317.172 233.677 318.468 231.837 320.132 230.269C321.796 228.701 323.748 227.485 325.988 226.621C328.228 225.757 330.66 225.325 333.284 225.325C335.94 225.325 338.372 225.757 340.58 226.621C342.82 227.485 344.756 228.701 346.388 230.269C348.052 231.837 349.348 233.677 350.276 235.789C351.204 237.869 351.668 240.173 351.668 242.701C351.668 245.197 351.204 247.517 350.276 249.661C349.348 251.773 348.052 253.613 346.388 255.181C344.756 256.717 342.82 257.917 340.58 258.781C338.372 259.645 335.956 260.077 333.332 260.077ZM333.284 253.453C334.788 253.453 336.164 253.197 337.412 252.685C338.692 252.173 339.812 251.437 340.772 250.477C341.732 249.517 342.468 248.381 342.98 247.069C343.524 245.757 343.796 244.301 343.796 242.701C343.796 241.101 343.524 239.645 342.98 238.333C342.468 237.021 341.732 235.885 340.772 234.925C339.844 233.965 338.74 233.229 337.46 232.717C336.18 232.205 334.788 231.949 333.284 231.949C331.78 231.949 330.388 232.205 329.108 232.717C327.86 233.229 326.756 233.965 325.796 234.925C324.836 235.885 324.084 237.021 323.54 238.333C323.028 239.645 322.772 241.101 322.772 242.701C322.772 244.269 323.028 245.725 323.54 247.069C324.084 248.381 324.82 249.517 325.748 250.477C326.708 251.437 327.828 252.173 329.108 252.685C330.388 253.197 331.78 253.453 333.284 253.453ZM368.552 260.077C365.864 260.077 363.288 259.725 360.824 259.021C358.36 258.285 356.376 257.341 354.872 256.189L357.512 250.333C358.952 251.357 360.648 252.205 362.6 252.877C364.584 253.517 366.584 253.837 368.6 253.837C370.136 253.837 371.368 253.693 372.296 253.405C373.256 253.085 373.96 252.653 374.408 252.109C374.856 251.565 375.08 250.941 375.08 250.237C375.08 249.341 374.728 248.637 374.024 248.125C373.32 247.581 372.392 247.149 371.24 246.829C370.088 246.477 368.808 246.157 367.4 245.869C366.024 245.549 364.632 245.165 363.224 244.717C361.848 244.269 360.584 243.693 359.432 242.989C358.28 242.285 357.336 241.357 356.6 240.205C355.896 239.053 355.544 237.581 355.544 235.789C355.544 233.869 356.056 232.125 357.08 230.557C358.136 228.957 359.704 227.693 361.784 226.765C363.896 225.805 366.536 225.325 369.704 225.325C371.816 225.325 373.896 225.581 375.944 226.093C377.992 226.573 379.8 227.309 381.368 228.301L378.968 234.205C377.4 233.309 375.832 232.653 374.264 232.237C372.696 231.789 371.16 231.565 369.656 231.565C368.152 231.565 366.92 231.741 365.96 232.093C365 232.445 364.312 232.909 363.896 233.485C363.48 234.029 363.272 234.669 363.272 235.405C363.272 236.269 363.624 236.973 364.328 237.517C365.032 238.029 365.96 238.445 367.112 238.765C368.264 239.085 369.528 239.405 370.904 239.725C372.312 240.045 373.704 240.413 375.08 240.829C376.488 241.245 377.768 241.805 378.92 242.509C380.072 243.213 381 244.141 381.704 245.293C382.44 246.445 382.808 247.901 382.808 249.661C382.808 251.549 382.28 253.277 381.224 254.845C380.168 256.413 378.584 257.677 376.472 258.637C374.392 259.597 371.752 260.077 368.552 260.077Z" fill="white" fill-opacity="0.8"/>
<path d="M78.6957 174.5V140.9H85.1277L99.4317 164.612H96.0237L110.088 140.9H116.472L116.568 174.5H109.272L109.224 152.084H110.568L99.3357 170.948H95.8317L84.3597 152.084H85.9917V174.5H78.6957ZM120.123 174.5L135.099 140.9H142.779L157.803 174.5H149.643L137.355 144.836H140.427L128.091 174.5H120.123ZM127.611 167.3L129.675 161.396H146.955L149.067 167.3H127.611ZM161.289 174.5V140.9H167.721L187.545 165.092H184.425V140.9H192.105V174.5H185.721L165.849 150.308H168.969V174.5H161.289ZM214.983 175.076C210.215 175.076 206.487 173.748 203.799 171.092C201.111 168.436 199.767 164.644 199.767 159.716V140.9H207.543V159.428C207.543 162.628 208.199 164.932 209.511 166.34C210.823 167.748 212.663 168.452 215.031 168.452C217.399 168.452 219.239 167.748 220.551 166.34C221.863 164.932 222.519 162.628 222.519 159.428V140.9H230.199V159.716C230.199 164.644 228.855 168.436 226.167 171.092C223.479 173.748 219.751 175.076 214.983 175.076ZM244.281 174.5V147.236H233.529V140.9H262.809V147.236H252.057V174.5H244.281ZM274.145 154.436H290.321V160.484H274.145V154.436ZM274.721 168.26H293.009V174.5H266.993V140.9H292.385V147.14H274.721V168.26ZM299.196 174.5V140.9H305.628L325.452 165.092H322.332V140.9H330.012V174.5H323.628L303.756 150.308H306.876V174.5H299.196ZM354.041 175.076C351.449 175.076 349.033 174.66 346.793 173.828C344.585 172.964 342.665 171.748 341.033 170.18C339.401 168.612 338.121 166.772 337.193 164.66C336.297 162.548 335.849 160.228 335.849 157.7C335.849 155.172 336.297 152.852 337.193 150.74C338.121 148.628 339.401 146.788 341.033 145.22C342.697 143.652 344.633 142.452 346.841 141.62C349.049 140.756 351.465 140.324 354.089 140.324C357.001 140.324 359.625 140.836 361.961 141.86C364.329 142.852 366.313 144.324 367.913 146.276L362.921 150.884C361.769 149.572 360.489 148.596 359.081 147.956C357.673 147.284 356.137 146.948 354.473 146.948C352.905 146.948 351.465 147.204 350.153 147.716C348.841 148.228 347.705 148.964 346.745 149.924C345.785 150.884 345.033 152.02 344.489 153.332C343.977 154.644 343.721 156.1 343.721 157.7C343.721 159.3 343.977 160.756 344.489 162.068C345.033 163.38 345.785 164.516 346.745 165.476C347.705 166.436 348.841 167.172 350.153 167.684C351.465 168.196 352.905 168.452 354.473 168.452C356.137 168.452 357.673 168.132 359.081 167.492C360.489 166.82 361.769 165.812 362.921 164.468L367.913 169.076C366.313 171.028 364.329 172.516 361.961 173.54C359.625 174.564 356.985 175.076 354.041 175.076ZM351.449 185.636C350.617 185.636 349.801 185.54 349.001 185.348C348.233 185.156 347.561 184.916 346.985 184.628L348.137 181.412C348.617 181.636 349.113 181.812 349.625 181.94C350.137 182.068 350.681 182.132 351.257 182.132C352.153 182.132 352.793 181.988 353.177 181.7C353.561 181.412 353.753 181.044 353.753 180.596C353.753 180.18 353.561 179.844 353.177 179.588C352.825 179.332 352.233 179.204 351.401 179.204H349.769L351.017 174.116H355.001L354.329 176.9C355.769 177.06 356.825 177.508 357.497 178.244C358.169 179.012 358.505 179.892 358.505 180.884C358.505 182.324 357.865 183.476 356.585 184.34C355.305 185.204 353.593 185.636 351.449 185.636ZM388.781 175.076C386.125 175.076 383.661 174.644 381.389 173.78C379.149 172.916 377.197 171.7 375.533 170.132C373.901 168.564 372.621 166.724 371.693 164.612C370.797 162.5 370.349 160.196 370.349 157.7C370.349 155.204 370.797 152.9 371.693 150.788C372.621 148.676 373.917 146.836 375.581 145.268C377.245 143.7 379.197 142.484 381.437 141.62C383.677 140.756 386.109 140.324 388.733 140.324C391.389 140.324 393.821 140.756 396.029 141.62C398.269 142.484 400.205 143.7 401.837 145.268C403.501 146.836 404.797 148.676 405.725 150.788C406.653 152.868 407.117 155.172 407.117 157.7C407.117 160.196 406.653 162.516 405.725 164.66C404.797 166.772 403.501 168.612 401.837 170.18C400.205 171.716 398.269 172.916 396.029 173.78C393.821 174.644 391.405 175.076 388.781 175.076ZM388.733 168.452C390.237 168.452 391.613 168.196 392.861 167.684C394.141 167.172 395.261 166.436 396.221 165.476C397.181 164.516 397.917 163.38 398.429 162.068C398.973 160.756 399.245 159.3 399.245 157.7C399.245 156.1 398.973 154.644 398.429 153.332C397.917 152.02 397.181 150.884 396.221 149.924C395.293 148.964 394.189 148.228 392.909 147.716C391.629 147.204 390.237 146.948 388.733 146.948C387.229 146.948 385.837 147.204 384.557 147.716C383.309 148.228 382.205 148.964 381.245 149.924C380.285 150.884 379.533 152.02 378.989 153.332C378.477 154.644 378.221 156.1 378.221 157.7C378.221 159.268 378.477 160.724 378.989 162.068C379.533 163.38 380.269 164.516 381.197 165.476C382.157 166.436 383.277 167.172 384.557 167.684C385.837 168.196 387.229 168.452 388.733 168.452ZM392.333 138.308C391.501 138.308 390.765 138.164 390.125 137.876C389.485 137.556 388.909 137.204 388.397 136.82C387.885 136.404 387.405 136.052 386.957 135.764C386.509 135.444 386.061 135.284 385.613 135.284C384.973 135.284 384.445 135.524 384.029 136.004C383.613 136.452 383.373 137.108 383.309 137.972H379.517C379.581 135.828 380.109 134.132 381.101 132.884C382.093 131.604 383.437 130.964 385.133 130.964C385.965 130.964 386.701 131.124 387.341 131.444C387.981 131.732 388.557 132.084 389.069 132.5C389.613 132.916 390.109 133.284 390.557 133.604C391.005 133.892 391.437 134.036 391.853 134.036C392.525 134.036 393.069 133.812 393.485 133.364C393.901 132.884 394.125 132.244 394.157 131.444H397.949C397.917 133.492 397.389 135.156 396.365 136.436C395.373 137.684 394.029 138.308 392.333 138.308ZM420.113 154.436H436.289V160.484H420.113V154.436ZM420.689 168.26H438.977V174.5H412.961V140.9H438.353V147.14H420.689V168.26ZM456.204 175.076C453.516 175.076 450.94 174.724 448.476 174.02C446.012 173.284 444.028 172.34 442.524 171.188L445.164 165.332C446.604 166.356 448.3 167.204 450.252 167.876C452.236 168.516 454.236 168.836 456.252 168.836C457.788 168.836 459.02 168.692 459.948 168.404C460.908 168.084 461.612 167.652 462.06 167.108C462.508 166.564 462.732 165.94 462.732 165.236C462.732 164.34 462.38 163.636 461.676 163.124C460.972 162.58 460.044 162.148 458.892 161.828C457.74 161.476 456.46 161.156 455.052 160.868C453.676 160.548 452.284 160.164 450.876 159.716C449.5 159.268 448.236 158.692 447.084 157.988C445.932 157.284 444.988 156.356 444.252 155.204C443.548 154.052 443.196 152.58 443.196 150.788C443.196 148.868 443.708 147.124 444.732 145.556C445.788 143.956 447.356 142.692 449.436 141.764C451.548 140.804 454.188 140.324 457.356 140.324C459.468 140.324 461.548 140.58 463.596 141.092C465.644 141.572 467.452 142.308 469.02 143.3L466.62 149.204C465.052 148.308 463.484 147.652 461.916 147.236C460.348 146.788 458.812 146.564 457.308 146.564C455.804 146.564 454.572 146.74 453.612 147.092C452.652 147.444 451.964 147.908 451.548 148.484C451.132 149.028 450.924 149.668 450.924 150.404C450.924 151.268 451.276 151.972 451.98 152.516C452.684 153.028 453.612 153.444 454.764 153.764C455.916 154.084 457.18 154.404 458.556 154.724C459.964 155.044 461.356 155.412 462.732 155.828C464.14 156.244 465.42 156.804 466.572 157.508C467.724 158.212 468.652 159.14 469.356 160.292C470.092 161.444 470.46 162.9 470.46 164.66C470.46 166.548 469.932 168.276 468.876 169.844C467.82 171.412 466.236 172.676 464.124 173.636C462.044 174.596 459.404 175.076 456.204 175.076Z" fill="white" fill-opacity="0.8"/>
<path d="M82.4765 93.042V65.778H71.7245V59.442H101.004V65.778H90.2525V93.042H82.4765ZM105.188 93.042V59.442H119.732C122.74 59.442 125.332 59.938 127.508 60.93C129.684 61.89 131.364 63.282 132.548 65.106C133.732 66.93 134.324 69.106 134.324 71.634C134.324 74.13 133.732 76.29 132.548 78.114C131.364 79.906 129.684 81.282 127.508 82.242C125.332 83.202 122.74 83.682 119.732 83.682H109.508L112.964 80.274V93.042H105.188ZM126.548 93.042L118.148 80.85H126.452L134.948 93.042H126.548ZM112.964 81.138L109.508 77.49H119.3C121.7 77.49 123.492 76.978 124.676 75.954C125.86 74.898 126.452 73.458 126.452 71.634C126.452 69.778 125.86 68.338 124.676 67.314C123.492 66.29 121.7 65.778 119.3 65.778H109.508L112.964 62.082V81.138ZM147.637 72.978H163.813V79.026H147.637V72.978ZM148.213 86.802H166.501V93.042H140.485V59.442H165.877V65.682H148.213V86.802ZM172.688 93.042V59.442H180.464V93.042H172.688ZM188.438 93.042V59.442H194.87L214.694 83.634H211.574V59.442H219.254V93.042H212.87L192.998 68.85H196.118V93.042H188.438ZM222.788 93.042L237.764 59.442H245.444L260.468 93.042H252.308L240.02 63.378H243.092L230.756 93.042H222.788ZM230.276 85.842L232.34 79.938H249.62L251.732 85.842H230.276ZM263.954 93.042V59.442H270.386L284.69 83.154H281.282L295.346 59.442H301.73L301.826 93.042H294.53L294.482 70.626H295.826L284.594 89.49H281.09L269.618 70.626H271.25V93.042H263.954ZM316.95 72.978H333.126V79.026H316.95V72.978ZM317.526 86.802H335.814V93.042H309.798V59.442H335.19V65.682H317.526V86.802ZM342.001 93.042V59.442H348.433L368.257 83.634H365.137V59.442H372.817V93.042H366.433L346.561 68.85H349.681V93.042H342.001ZM387.726 93.042V65.778H376.974V59.442H406.254V65.778H395.502V93.042H387.726ZM426.29 93.618C423.634 93.618 421.17 93.186 418.898 92.322C416.658 91.458 414.706 90.242 413.042 88.674C411.41 87.106 410.13 85.266 409.202 83.154C408.306 81.042 407.858 78.738 407.858 76.242C407.858 73.746 408.306 71.442 409.202 69.33C410.13 67.218 411.426 65.378 413.09 63.81C414.754 62.242 416.706 61.026 418.946 60.162C421.186 59.298 423.618 58.866 426.242 58.866C428.898 58.866 431.33 59.298 433.538 60.162C435.778 61.026 437.714 62.242 439.346 63.81C441.01 65.378 442.306 67.218 443.234 69.33C444.162 71.41 444.626 73.714 444.626 76.242C444.626 78.738 444.162 81.058 443.234 83.202C442.306 85.314 441.01 87.154 439.346 88.722C437.714 90.258 435.778 91.458 433.538 92.322C431.33 93.186 428.914 93.618 426.29 93.618ZM426.242 86.994C427.746 86.994 429.122 86.738 430.37 86.226C431.65 85.714 432.77 84.978 433.73 84.018C434.69 83.058 435.426 81.922 435.938 80.61C436.482 79.298 436.754 77.842 436.754 76.242C436.754 74.642 436.482 73.186 435.938 71.874C435.426 70.562 434.69 69.426 433.73 68.466C432.802 67.506 431.698 66.77 430.418 66.258C429.138 65.746 427.746 65.49 426.242 65.49C424.738 65.49 423.346 65.746 422.066 66.258C420.818 66.77 419.714 67.506 418.754 68.466C417.794 69.426 417.042 70.562 416.498 71.874C415.986 73.186 415.73 74.642 415.73 76.242C415.73 77.81 415.986 79.266 416.498 80.61C417.042 81.922 417.778 83.058 418.706 84.018C419.666 84.978 420.786 85.714 422.066 86.226C423.346 86.738 424.738 86.994 426.242 86.994ZM461.51 93.618C458.822 93.618 456.246 93.266 453.782 92.562C451.318 91.826 449.334 90.882 447.83 89.73L450.47 83.874C451.91 84.898 453.606 85.746 455.558 86.418C457.542 87.058 459.542 87.378 461.558 87.378C463.094 87.378 464.326 87.234 465.254 86.946C466.214 86.626 466.918 86.194 467.366 85.65C467.814 85.106 468.038 84.482 468.038 83.778C468.038 82.882 467.686 82.178 466.982 81.666C466.278 81.122 465.35 80.69 464.198 80.37C463.046 80.018 461.766 79.698 460.358 79.41C458.982 79.09 457.59 78.706 456.182 78.258C454.806 77.81 453.542 77.234 452.39 76.53C451.238 75.826 450.294 74.898 449.558 73.746C448.854 72.594 448.502 71.122 448.502 69.33C448.502 67.41 449.014 65.666 450.038 64.098C451.094 62.498 452.662 61.234 454.742 60.306C456.854 59.346 459.494 58.866 462.662 58.866C464.774 58.866 466.854 59.122 468.902 59.634C470.95 60.114 472.758 60.85 474.326 61.842L471.926 67.746C470.358 66.85 468.79 66.194 467.222 65.778C465.654 65.33 464.118 65.106 462.614 65.106C461.11 65.106 459.878 65.282 458.918 65.634C457.958 65.986 457.27 66.45 456.854 67.026C456.438 67.57 456.23 68.21 456.23 68.946C456.23 69.81 456.582 70.514 457.286 71.058C457.99 71.57 458.918 71.986 460.07 72.306C461.222 72.626 462.486 72.946 463.862 73.266C465.27 73.586 466.662 73.954 468.038 74.37C469.446 74.786 470.726 75.346 471.878 76.05C473.03 76.754 473.958 77.682 474.662 78.834C475.398 79.986 475.766 81.442 475.766 83.202C475.766 85.09 475.238 86.818 474.182 88.386C473.126 89.954 471.542 91.218 469.43 92.178C467.35 93.138 464.71 93.618 461.51 93.618Z" fill="white" fill-opacity="0.8"/>
</svg>
