<svg width="132" height="169" viewBox="0 0 132 169" fill="none" xmlns="http://www.w3.org/2000/svg">
<path d="M116.577 0H26.4225C20.6663 0 16 4.11982 16 9.20188V88.7981C16 93.8802 20.6663 98 26.4225 98H116.577C122.334 98 127 93.8802 127 88.7981V9.20188C127 4.11982 122.334 0 116.577 0Z" fill="#3178C6"/>
<path fill-rule="evenodd" clip-rule="evenodd" d="M83.6616 77.6247V87.5098C85.4829 88.3339 87.6362 88.9518 90.1225 89.3636C92.6088 89.7753 95.229 89.9815 97.9837 89.9815C100.669 89.9815 103.219 89.7547 105.635 89.3015C108.051 88.8487 110.17 88.102 111.991 87.0622C113.812 86.0219 115.253 84.6628 116.315 82.9844C117.377 81.3059 117.909 79.2314 117.909 76.7598C117.909 74.9682 117.605 73.3978 116.998 72.0488C116.391 70.7003 115.516 69.5004 114.372 68.4505C113.228 67.4001 111.857 66.4578 110.257 65.6236C108.658 64.7895 106.855 64.0018 104.847 63.2606C103.376 62.7251 102.057 62.2051 100.891 61.7004C99.7232 61.1962 98.731 60.6813 97.9139 60.1559C97.0967 59.6309 96.4667 59.0747 96.0227 58.488C95.5792 57.901 95.3578 57.2366 95.3578 56.4954C95.3578 55.8158 95.5558 55.203 95.9529 54.6573C96.35 54.1116 96.9102 53.6433 97.6335 53.2517C98.3574 52.8606 99.2443 52.557 100.295 52.3407C101.346 52.1245 102.513 52.0164 103.797 52.0164C104.731 52.0164 105.717 52.078 106.756 52.2018C107.794 52.3251 108.839 52.5156 109.89 52.7732C110.94 53.0304 111.962 53.3548 112.954 53.7463C113.946 54.1374 114.862 54.5906 115.703 55.1054V45.869C113.998 45.2921 112.137 44.8651 110.118 44.5868C108.098 44.3089 105.781 44.1699 103.166 44.1699C100.505 44.1699 97.9837 44.422 95.6027 44.9268C93.2216 45.4315 91.1262 46.2192 89.3169 47.2898C87.508 48.3609 86.0781 49.7251 85.0275 51.3828C83.9769 53.041 83.4516 55.0231 83.4516 57.3295C83.4516 60.2746 84.4146 62.7867 86.3407 64.8668C88.2668 66.9469 91.1903 68.7076 95.1123 70.1491C96.6533 70.7054 98.089 71.251 99.4194 71.7866C100.75 72.3217 101.9 72.8779 102.869 73.4544C103.838 74.0314 104.602 74.6594 105.162 75.339C105.723 76.0185 106.003 76.7906 106.003 77.6556C106.003 78.2942 105.828 78.8863 105.478 79.432C105.127 79.9776 104.596 80.4515 103.884 80.8528C103.172 81.2544 102.285 81.5687 101.223 81.795C100.161 82.0219 98.9176 82.135 97.4939 82.135C95.0659 82.135 92.6614 81.7591 90.2799 81.0073C87.8989 80.2556 85.6929 79.1283 83.6616 77.6247ZM64.9995 53.0249H79.3977V44.8858H39.2657V53.0249H53.5936V89.2656H64.9995V53.0249Z" fill="white"/>
<path d="M18.1191 155V142.28H13.1991V141H24.5191V142.28H19.5991V155H18.1191ZM25.9799 158.98C25.4866 158.98 25.0133 158.9 24.5599 158.74C24.1199 158.58 23.7399 158.34 23.4199 158.02L24.0799 156.96C24.3466 157.213 24.6333 157.407 24.9399 157.54C25.2599 157.687 25.6133 157.76 25.9999 157.76C26.4666 157.76 26.8666 157.627 27.1999 157.36C27.5466 157.107 27.8733 156.653 28.1799 156L28.8599 154.46L29.0199 154.24L33.3399 144.5H34.7399L29.4799 156.26C29.1866 156.94 28.8599 157.48 28.4999 157.88C28.1533 158.28 27.7733 158.56 27.3599 158.72C26.9466 158.893 26.4866 158.98 25.9799 158.98ZM28.7799 155.3L23.9399 144.5H25.4199L29.6999 154.14L28.7799 155.3ZM42.1598 155.1C41.2531 155.1 40.4331 154.893 39.6998 154.48C38.9664 154.053 38.3798 153.447 37.9398 152.66C37.5131 151.86 37.2998 150.887 37.2998 149.74C37.2998 148.593 37.5131 147.627 37.9398 146.84C38.3664 146.04 38.9464 145.433 39.6798 145.02C40.4131 144.607 41.2398 144.4 42.1598 144.4C43.1598 144.4 44.0531 144.627 44.8398 145.08C45.6398 145.52 46.2664 146.147 46.7198 146.96C47.1731 147.76 47.3998 148.687 47.3998 149.74C47.3998 150.807 47.1731 151.74 46.7198 152.54C46.2664 153.34 45.6398 153.967 44.8398 154.42C44.0531 154.873 43.1598 155.1 42.1598 155.1ZM36.7398 158.88V144.5H38.0998V147.66L37.9598 149.76L38.1598 151.88V158.88H36.7398ZM42.0598 153.84C42.8064 153.84 43.4731 153.673 44.0598 153.34C44.6464 152.993 45.1131 152.513 45.4598 151.9C45.8064 151.273 45.9798 150.553 45.9798 149.74C45.9798 148.927 45.8064 148.213 45.4598 147.6C45.1131 146.987 44.6464 146.507 44.0598 146.16C43.4731 145.813 42.8064 145.64 42.0598 145.64C41.3131 145.64 40.6398 145.813 40.0398 146.16C39.4531 146.507 38.9864 146.987 38.6398 147.6C38.3064 148.213 38.1398 148.927 38.1398 149.74C38.1398 150.553 38.3064 151.273 38.6398 151.9C38.9864 152.513 39.4531 152.993 40.0398 153.34C40.6398 153.673 41.3131 153.84 42.0598 153.84ZM54.7545 155.1C53.6611 155.1 52.7011 154.873 51.8745 154.42C51.0478 153.953 50.4011 153.32 49.9345 152.52C49.4678 151.707 49.2345 150.78 49.2345 149.74C49.2345 148.7 49.4545 147.78 49.8945 146.98C50.3478 146.18 50.9611 145.553 51.7345 145.1C52.5211 144.633 53.4011 144.4 54.3745 144.4C55.3611 144.4 56.2345 144.627 56.9945 145.08C57.7678 145.52 58.3745 146.147 58.8145 146.96C59.2545 147.76 59.4745 148.687 59.4745 149.74C59.4745 149.807 59.4678 149.88 59.4545 149.96C59.4545 150.027 59.4545 150.1 59.4545 150.18H50.3145V149.12H58.6945L58.1345 149.54C58.1345 148.78 57.9678 148.107 57.6345 147.52C57.3145 146.92 56.8745 146.453 56.3145 146.12C55.7545 145.787 55.1078 145.62 54.3745 145.62C53.6545 145.62 53.0078 145.787 52.4345 146.12C51.8611 146.453 51.4145 146.92 51.0945 147.52C50.7745 148.12 50.6145 148.807 50.6145 149.58V149.8C50.6145 150.6 50.7878 151.307 51.1345 151.92C51.4945 152.52 51.9878 152.993 52.6145 153.34C53.2545 153.673 53.9811 153.84 54.7945 153.84C55.4345 153.84 56.0278 153.727 56.5745 153.5C57.1345 153.273 57.6145 152.927 58.0145 152.46L58.8145 153.38C58.3478 153.94 57.7611 154.367 57.0545 154.66C56.3611 154.953 55.5945 155.1 54.7545 155.1ZM66.5248 155.12C65.4848 155.12 64.4848 154.953 63.5248 154.62C62.5781 154.273 61.8448 153.833 61.3248 153.3L61.9048 152.16C62.3981 152.64 63.0581 153.047 63.8848 153.38C64.7248 153.7 65.6048 153.86 66.5248 153.86C67.4048 153.86 68.1181 153.753 68.6648 153.54C69.2248 153.313 69.6314 153.013 69.8848 152.64C70.1514 152.267 70.2848 151.853 70.2848 151.4C70.2848 150.853 70.1248 150.413 69.8048 150.08C69.4981 149.747 69.0914 149.487 68.5848 149.3C68.0781 149.1 67.5181 148.927 66.9048 148.78C66.2914 148.633 65.6781 148.48 65.0648 148.32C64.4514 148.147 63.8848 147.92 63.3648 147.64C62.8581 147.36 62.4448 146.993 62.1248 146.54C61.8181 146.073 61.6648 145.467 61.6648 144.72C61.6648 144.027 61.8448 143.393 62.2048 142.82C62.5781 142.233 63.1448 141.767 63.9048 141.42C64.6648 141.06 65.6381 140.88 66.8248 140.88C67.6114 140.88 68.3914 140.993 69.1648 141.22C69.9381 141.433 70.6048 141.733 71.1648 142.12L70.6648 143.3C70.0648 142.9 69.4248 142.607 68.7448 142.42C68.0781 142.233 67.4314 142.14 66.8048 142.14C65.9648 142.14 65.2714 142.253 64.7248 142.48C64.1781 142.707 63.7714 143.013 63.5048 143.4C63.2514 143.773 63.1248 144.2 63.1248 144.68C63.1248 145.227 63.2781 145.667 63.5848 146C63.9048 146.333 64.3181 146.593 64.8248 146.78C65.3448 146.967 65.9114 147.133 66.5248 147.28C67.1381 147.427 67.7448 147.587 68.3448 147.76C68.9581 147.933 69.5181 148.16 70.0248 148.44C70.5448 148.707 70.9581 149.067 71.2648 149.52C71.5848 149.973 71.7448 150.567 71.7448 151.3C71.7448 151.98 71.5581 152.613 71.1848 153.2C70.8114 153.773 70.2381 154.24 69.4648 154.6C68.7048 154.947 67.7248 155.12 66.5248 155.12ZM79.0295 155.1C77.9895 155.1 77.0561 154.873 76.2295 154.42C75.4161 153.953 74.7761 153.32 74.3095 152.52C73.8428 151.707 73.6095 150.78 73.6095 149.74C73.6095 148.687 73.8428 147.76 74.3095 146.96C74.7761 146.16 75.4161 145.533 76.2295 145.08C77.0561 144.627 77.9895 144.4 79.0295 144.4C79.9228 144.4 80.7295 144.573 81.4495 144.92C82.1695 145.267 82.7361 145.787 83.1495 146.48L82.0895 147.2C81.7295 146.667 81.2828 146.273 80.7495 146.02C80.2161 145.767 79.6361 145.64 79.0095 145.64C78.2628 145.64 77.5895 145.813 76.9895 146.16C76.3895 146.493 75.9161 146.967 75.5695 147.58C75.2228 148.193 75.0495 148.913 75.0495 149.74C75.0495 150.567 75.2228 151.287 75.5695 151.9C75.9161 152.513 76.3895 152.993 76.9895 153.34C77.5895 153.673 78.2628 153.84 79.0095 153.84C79.6361 153.84 80.2161 153.713 80.7495 153.46C81.2828 153.207 81.7295 152.82 82.0895 152.3L83.1495 153.02C82.7361 153.7 82.1695 154.22 81.4495 154.58C80.7295 154.927 79.9228 155.1 79.0295 155.1ZM85.939 155V144.5H87.299V147.36L87.159 146.86C87.4523 146.06 87.9457 145.453 88.639 145.04C89.3323 144.613 90.1923 144.4 91.219 144.4V145.78C91.1657 145.78 91.1123 145.78 91.059 145.78C91.0057 145.767 90.9523 145.76 90.899 145.76C89.7923 145.76 88.9257 146.1 88.299 146.78C87.6723 147.447 87.359 148.4 87.359 149.64V155H85.939ZM93.8101 155V144.5H95.2301V155H93.8101ZM94.5301 142.18C94.2367 142.18 93.9901 142.08 93.7901 141.88C93.5901 141.68 93.4901 141.44 93.4901 141.16C93.4901 140.88 93.5901 140.647 93.7901 140.46C93.9901 140.26 94.2367 140.16 94.5301 140.16C94.8234 140.16 95.0701 140.253 95.2701 140.44C95.4701 140.627 95.5701 140.86 95.5701 141.14C95.5701 141.433 95.4701 141.68 95.2701 141.88C95.0834 142.08 94.8367 142.18 94.5301 142.18ZM104.601 155.1C103.695 155.1 102.875 154.893 102.141 154.48C101.408 154.053 100.821 153.447 100.381 152.66C99.9545 151.86 99.7412 150.887 99.7412 149.74C99.7412 148.593 99.9545 147.627 100.381 146.84C100.808 146.04 101.388 145.433 102.121 145.02C102.855 144.607 103.681 144.4 104.601 144.4C105.601 144.4 106.495 144.627 107.281 145.08C108.081 145.52 108.708 146.147 109.161 146.96C109.615 147.76 109.841 148.687 109.841 149.74C109.841 150.807 109.615 151.74 109.161 152.54C108.708 153.34 108.081 153.967 107.281 154.42C106.495 154.873 105.601 155.1 104.601 155.1ZM99.1812 158.88V144.5H100.541V147.66L100.401 149.76L100.601 151.88V158.88H99.1812ZM104.501 153.84C105.248 153.84 105.915 153.673 106.501 153.34C107.088 152.993 107.555 152.513 107.901 151.9C108.248 151.273 108.421 150.553 108.421 149.74C108.421 148.927 108.248 148.213 107.901 147.6C107.555 146.987 107.088 146.507 106.501 146.16C105.915 145.813 105.248 145.64 104.501 145.64C103.755 145.64 103.081 145.813 102.481 146.16C101.895 146.507 101.428 146.987 101.081 147.6C100.748 148.213 100.581 148.927 100.581 149.74C100.581 150.553 100.748 151.273 101.081 151.9C101.428 152.513 101.895 152.993 102.481 153.34C103.081 153.673 103.755 153.84 104.501 153.84ZM116.056 155.1C115.069 155.1 114.309 154.833 113.776 154.3C113.243 153.767 112.976 153.013 112.976 152.04V142.18H114.396V151.96C114.396 152.573 114.549 153.047 114.856 153.38C115.176 153.713 115.629 153.88 116.216 153.88C116.843 153.88 117.363 153.7 117.776 153.34L118.276 154.36C117.996 154.613 117.656 154.8 117.256 154.92C116.869 155.04 116.469 155.1 116.056 155.1ZM111.096 145.68V144.5H117.596V145.68H111.096Z" fill="white"/>
</svg>
